<svg xmlns="http://www.w3.org/2000/svg" width="43.17" height="37.41" viewBox="0 0 43.17 37.41">
  <g id="_2599178" data-name="2599178" transform="translate(0 -34.159)">
    <g id="Сгруппировать_182" data-name="Сгруппировать 182" transform="translate(0 39.142)">
      <path id="Контур_494" data-name="Контур 494" d="M16.526,122.706V94.966A50.447,50.447,0,0,0,3.468,93.251h-2.2A1.265,1.265,0,0,0,0,94.516v25.3a1.265,1.265,0,0,0,1.265,1.265h2.2a47.913,47.913,0,0,1,13.062,1.81C16.527,122.825,16.526,122.765,16.526,122.706Z" transform="translate(0 -93.251)" fill="#ff8e3c"/>
    </g>
    <g id="Сгруппировать_183" data-name="Сгруппировать 183" transform="translate(26.64 39.142)">
      <path id="Контур_495" data-name="Контур 495" d="M331.216,93.251h-2.2a50.448,50.448,0,0,0-13.058,1.715s0,27.859,0,27.92a47.913,47.913,0,0,1,13.062-1.81h2.2a1.265,1.265,0,0,0,1.265-1.265v-25.3a1.265,1.265,0,0,0-1.265-1.265Z" transform="translate(-315.95 -93.251)" fill="#ff8e3c"/>
    </g>
    <g id="Сгруппировать_184" data-name="Сгруппировать 184" transform="translate(19.056 41.671)">
      <path id="Контур_496" data-name="Контур 496" d="M228.53,153.145a2.5,2.5,0,0,1-2.53-2.074V123.247a2.58,2.58,0,0,0,5.059,0v27.825A2.5,2.5,0,0,1,228.53,153.145Z" transform="translate(-226 -123.247)" fill="#ff8e3c"/>
    </g>
    <path id="Контур_497" data-name="Контур 497" d="M86.135,36.621a52.945,52.945,0,0,0-15.9,2.716,3.766,3.766,0,0,0-1.33.771,3.766,3.766,0,0,0-1.33-.771,52.945,52.945,0,0,0-15.9-2.716l.881-1.762a1.266,1.266,0,0,1,1.2-.7,55.7,55.7,0,0,1,15.148,2.952,58.081,58.081,0,0,1,15.148-2.952,1.264,1.264,0,0,1,1.2.7Z" transform="translate(-47.323)" fill="#ff8e3c"/>
  </g>
</svg>
