<svg xmlns="http://www.w3.org/2000/svg" width="42.193" height="37.873" viewBox="0 0 42.193 37.873">
  <g id="heart-shaped-with-white-lining-detail" transform="translate(0 -8.605)">
    <path id="Контур_514" data-name="Контур 514" d="M36.028,10.088A11.9,11.9,0,0,0,21.1,12.922,11.921,11.921,0,0,0,0,20.521,11.749,11.749,0,0,0,.585,24.2c1.121,5.043,7.184,8.718,12.445,12.9,4.316,3.428,8.074,9.377,8.074,9.377s3.642-5.867,7.879-9.229C34.273,33.062,40.47,29.308,41.608,24.2a11.716,11.716,0,0,0,.586-3.675A11.9,11.9,0,0,0,36.028,10.088Zm2.365,13.053a.828.828,0,0,1-.8.577.713.713,0,0,1-.264-.033.844.844,0,0,1-.536-1.071,6.569,6.569,0,0,0,.338-2.093,6.859,6.859,0,0,0-3.545-6,6.688,6.688,0,0,0-3.32-.857.841.841,0,0,1-.842-.841.83.83,0,0,1,.842-.841A8.247,8.247,0,0,1,34.4,13.055a8.494,8.494,0,0,1,4.41,7.466A8.234,8.234,0,0,1,38.392,23.141Z" fill="#ff8e3c"/>
  </g>
</svg>
