<svg xmlns="http://www.w3.org/2000/svg" width="35.949" height="35.95" viewBox="0 0 35.949 35.95">
  <path id="man" d="M35.934,35.019l-.9-3.595a5.22,5.22,0,0,0-3.423-3.713l-6.591-2.2c-1.607-.67-2.343-3.258-2.5-4.241a6.228,6.228,0,0,0,2.2-4.049,1.221,1.221,0,0,1,.181-.771.749.749,0,0,0,.514-.449,11.2,11.2,0,0,0,.8-3.273.72.72,0,0,0-.022-.181,1.926,1.926,0,0,0-.727-1.09V7.489c0-2.413-.737-3.4-1.513-3.977C23.81,2.35,22.565,0,17.982,0a7.81,7.81,0,0,0-7.49,7.49V11.46a1.926,1.926,0,0,0-.727,1.09.72.72,0,0,0-.022.181,11.2,11.2,0,0,0,.8,3.274.637.637,0,0,0,.449.43c.084.042.241.259.241.789a6.227,6.227,0,0,0,2.214,4.056c-.157.981-.888,3.568-2.451,4.221L4.351,27.711A5.22,5.22,0,0,0,.93,31.422l-.9,3.595a.749.749,0,0,0,.725.933H35.208a.749.749,0,0,0,.726-.93Z" transform="translate(-0.008)" fill="#ff8e3c"/>
</svg>
