<svg xmlns="http://www.w3.org/2000/svg" width="126" height="126" viewBox="0 0 126 126">
  <g id="Сгруппировать_185" data-name="Сгруппировать 185" transform="translate(-189 493.695)">
    <rect id="Прямоугольник_40" data-name="Прямоугольник 40" width="126" height="126" rx="15" transform="translate(189 -493.695)" fill="#fff"/>
    <g id="education" transform="translate(207 -475.073)">
      <path id="Контур_487" data-name="Контур 487" d="M199.492,148.306,182,142.132V154a2.623,2.623,0,0,0,2.623,2.623H219.6A2.623,2.623,0,0,0,222.224,154V142.132l-17.493,6.174a7.869,7.869,0,0,1-5.239,0Z" transform="translate(-150.171 -117.276)" fill="#ff8e3c"/>
      <path id="Контур_488" data-name="Контур 488" d="M113.75,15.59l29.731,10.493a2.623,2.623,0,0,0,1.746,0l26.234-9.259V27.107a2.623,2.623,0,0,0,5.247,0V13.116a2.624,2.624,0,0,0-1.75-2.474L145.227.149a2.621,2.621,0,0,0-1.746,0L113.75,10.642a2.623,2.623,0,0,0,0,4.948Z" transform="translate(-92.413)" fill="#ff8e3c"/>
      <path id="Контур_489" data-name="Контур 489" d="M172.292,292.383l-9.923,12.976a10.494,10.494,0,0,1-8.335,4.119H135.61a2.623,2.623,0,1,1,0-5.247h15.969a6.218,6.218,0,0,0,6.241-6.24,6.121,6.121,0,0,0-6.12-6H133.336a15.192,15.192,0,0,0-19.36-1.411L112,291.99V321.72h45.621a15.74,15.74,0,0,0,13.24-7.228L181.1,298.567a5.385,5.385,0,0,0-8.807-6.183Z" transform="translate(-92.413 -237.426)" fill="#ff8e3c"/>
      <path id="Контур_490" data-name="Контур 490" d="M11.717,282H2.623A2.623,2.623,0,0,0,0,284.623V319.6a2.623,2.623,0,0,0,2.623,2.623h9.094a2.623,2.623,0,0,0,2.623-2.623V284.623A2.623,2.623,0,0,0,11.717,282Z" transform="translate(0 -232.683)" fill="#ff8e3c"/>
    </g>
  </g>
</svg>
