<svg xmlns="http://www.w3.org/2000/svg" width="126" height="126" viewBox="0 0 126 126">
  <g id="Сгруппировать_185" data-name="Сгруппировать 185" transform="translate(-189 493.695)">
    <rect id="Прямоугольник_40" data-name="Прямоугольник 40" width="126" height="126" rx="15" transform="translate(189 -493.695)" fill="#fff"/>
    <g id="happy" transform="translate(207 -475.651)">
      <path id="Контур_502" data-name="Контур 502" d="M95.111,102.321C75.2,102.321,59,118.286,59,137.91S75.2,173.5,95.111,173.5s36.111-15.965,36.111-35.589S115.023,102.321,95.111,102.321Zm0,65.966a30.38,30.38,0,1,1,30.823-30.377A30.637,30.637,0,0,1,95.111,168.287Z" transform="translate(-48.749 -83.499)" fill="#ff8e3c"/>
      <path id="Контур_503" data-name="Контур 503" d="M201.144,342.267a2.606,2.606,0,0,0-3.675.281,15.628,15.628,0,0,1-23.734,0,2.606,2.606,0,1,0-3.956,3.394,20.84,20.84,0,0,0,31.647,0,2.606,2.606,0,0,0-.281-3.675Z" transform="translate(-139.215 -281.481)" fill="#ff8e3c"/>
      <path id="Контур_504" data-name="Контур 504" d="M168.172,239.18a2.606,2.606,0,0,0,2.606-2.606,1.515,1.515,0,0,1,3.031,0,2.606,2.606,0,1,0,5.212,0,6.728,6.728,0,1,0-13.455,0A2.606,2.606,0,0,0,168.172,239.18Z" transform="translate(-136.402 -189.388)" fill="#ff8e3c"/>
      <path id="Контур_505" data-name="Контур 505" d="M291.4,229.847a6.735,6.735,0,0,0-6.728,6.728,2.606,2.606,0,0,0,5.212,0,1.515,1.515,0,1,1,3.031,0,2.606,2.606,0,1,0,5.212,0A6.735,6.735,0,0,0,291.4,229.847Z" transform="translate(-234.526 -189.389)" fill="#ff8e3c"/>
      <path id="Контур_506" data-name="Контур 506" d="M375.026,59.473h3.8a2.606,2.606,0,1,0,0-5.212h-3.8a2.606,2.606,0,1,0,0,5.212Z" transform="translate(-306.87 -44.834)" fill="#ff8e3c"/>
      <path id="Контур_507" data-name="Контур 507" d="M429.816,95.652a2.606,2.606,0,0,0,2.606-2.606v-3.8a2.606,2.606,0,1,0-5.212,0v3.8A2.606,2.606,0,0,0,429.816,95.652Z" transform="translate(-351.941 -71.389)" fill="#ff8e3c"/>
      <path id="Контур_508" data-name="Контур 508" d="M466.525,54.261h-3.8a2.606,2.606,0,1,0,0,5.212h3.8a2.606,2.606,0,0,0,0-5.212Z" transform="translate(-379.131 -44.834)" fill="#ff8e3c"/>
      <path id="Контур_509" data-name="Контур 509" d="M429.816,9.014a2.606,2.606,0,0,0,2.606-2.606v-3.8a2.606,2.606,0,0,0-5.212,0v3.8A2.606,2.606,0,0,0,429.816,9.014Z" transform="translate(-351.941)" fill="#ff8e3c"/>
      <path id="Контур_510" data-name="Контур 510" d="M5.641,74.261H2.606a2.606,2.606,0,0,0,0,5.212H5.641a2.606,2.606,0,1,0,0-5.212Z" transform="translate(0 -61.359)" fill="#ff8e3c"/>
      <path id="Контур_511" data-name="Контур 511" d="M53.954,110.751v-3.035a2.606,2.606,0,0,0-5.212,0v3.035a2.606,2.606,0,1,0,5.212,0Z" transform="translate(-40.274 -86.612)" fill="#ff8e3c"/>
      <path id="Контур_512" data-name="Контур 512" d="M82.619,79.473h3.035a2.606,2.606,0,0,0,0-5.212H82.619a2.606,2.606,0,0,0,0,5.212Z" transform="translate(-65.932 -61.359)" fill="#ff8e3c"/>
      <path id="Контур_513" data-name="Контур 513" d="M51.348,34.189a2.606,2.606,0,0,0,2.606-2.606V28.548a2.606,2.606,0,0,0-5.212,0v3.035A2.606,2.606,0,0,0,51.348,34.189Z" transform="translate(-40.274 -21.435)" fill="#ff8e3c"/>
    </g>
  </g>
</svg>
