<svg xmlns="http://www.w3.org/2000/svg" width="126" height="126" viewBox="0 0 126 126">
  <g id="Сгруппировать_180" data-name="Сгруппировать 180" transform="translate(-170 493.695)">
    <rect id="Прямоугольник_40" data-name="Прямоугольник 40" width="126" height="126" rx="15" transform="translate(170 -493.695)" fill="#fff"/>
    <path id="trust" d="M87.07,45.65c-.066-.067-.135-.13-.207-.191L63.216,25.323a18.505,18.505,0,0,0-11.99-4.413h-.064a18.381,18.381,0,0,0-13.014,5.417l-3.189,3.189a3.531,3.531,0,0,1-4.922.049A3.412,3.412,0,0,1,29,27.112a3.74,3.74,0,0,1,1.081-2.666l.08-.082,6.917-7.382A30,30,0,0,1,57.666,7.556L84.26,29.239A3.516,3.516,0,0,0,88.7,23.79l-27.6-22.5A3.518,3.518,0,0,0,58.886.5,37.022,37.022,0,0,0,40.18,5.6,36.834,36.834,0,0,0,21.453.5a3.517,3.517,0,0,0-2.486,1.029L1.031,19.458A3.515,3.515,0,1,0,6,24.432L22.875,7.566A29.788,29.788,0,0,1,33.9,10.248q-1.006.925-1.947,1.926L25.068,19.52a10.812,10.812,0,0,0-3.095,7.659A10.513,10.513,0,0,0,39.93,34.488L43.12,31.3a11.393,11.393,0,0,1,8.066-3.358h.04a11.474,11.474,0,0,1,7.432,2.736L82.178,50.7a2.992,2.992,0,0,1-.08,4.144,3.007,3.007,0,0,1-4.226,0l-.721-.722A3.516,3.516,0,0,0,72.18,59.1l.722.721c.212.213.434.413.662.6a3.48,3.48,0,0,0,.332.391,2.988,2.988,0,0,1-4.226,4.226l-.027-.027-1.165-1.157a3.516,3.516,0,0,0-4.971,4.972l.8.8h0a3.559,3.559,0,0,1,1.007,2.379,2.853,2.853,0,0,1-.755,2.116,3.021,3.021,0,0,1-4.245-.253c-.066-.066-.134-.129-.205-.19l-.527-.45a3.516,3.516,0,0,0-4.767,5.162,3.1,3.1,0,0,1,.924,2.161,2.841,2.841,0,0,1-.833,2.059,3.034,3.034,0,0,1-4.29-.064l-.5-.493a10.209,10.209,0,0,0-2.275-10.944h0a10.4,10.4,0,0,0-4.68-2.712A10,10,0,0,0,34.1,56.988,9.867,9.867,0,0,0,31.2,50.74a9.972,9.972,0,0,0-6.275-2.895,10.012,10.012,0,0,0-17.04-6.3L2.971,46.289l-.044.043A10.012,10.012,0,0,0,8.209,63.267a9.991,9.991,0,0,0,2.922,7.427,9.606,9.606,0,0,0,6.858,2.814h.149a9.947,9.947,0,0,0,9.884,8.615c.216,0,.431-.01.646-.023a10.208,10.208,0,0,0,17.118,5.556A10.1,10.1,0,0,0,52.817,90.5a9.951,9.951,0,0,0,7.062-2.914,9.8,9.8,0,0,0,2.807-5.681,9.584,9.584,0,0,0,9.632-8.983,9.993,9.993,0,0,0,9.471-10.34,9.924,9.924,0,0,0,5.282-2.764,10.03,10.03,0,0,0,0-14.169Zm-74.9,9.837-.044.043a2.988,2.988,0,0,1-4.243-4.208l4.906-4.737.044-.043a2.988,2.988,0,0,1,4.485,3.926c-.092.084-.184.17-.273.259l-3.606,3.536Zm8.077,10.1a3.024,3.024,0,0,1-4.143.139,2.993,2.993,0,0,1-.01-4.217L18.343,59.3l3.641-3.515.044-.043c.095-.095.185-.191.274-.288a2.991,2.991,0,0,1,3.924.26,2.735,2.735,0,0,1,.019,3.989Zm9.976,8.587-.013.013a2.989,2.989,0,1,1-4.231-4.221l5.151-5.1.013-.013a2.988,2.988,0,0,1,4.232,4.221Zm12.653,6.389c-.015.014-.03.03-.045.045l-1.893,1.962a3.167,3.167,0,0,1-4.456-.018,3.262,3.262,0,0,1-.954-2.289,3.058,3.058,0,0,1,.883-2.217l2.109-2.109a2.86,2.86,0,0,1,2.041-.842,3.284,3.284,0,0,1,2.313.993,3.168,3.168,0,0,1,0,4.475Zm0,0" transform="translate(188 -476.196)" fill="#ff8e3c"/>
  </g>
</svg>
