<svg xmlns="http://www.w3.org/2000/svg" width="126" height="126" viewBox="0 0 126 126">
  <g id="Сгруппировать_180" data-name="Сгруппировать 180" transform="translate(-170 493.695)">
    <rect id="Прямоугольник_40" data-name="Прямоугольник 40" width="126" height="126" rx="15" transform="translate(170 -493.695)" fill="#ff8e3c"/>
    <g id="exam" transform="translate(141.888 -475.695)">
      <g id="Сгруппировать_192" data-name="Сгруппировать 192" transform="translate(70.205 21.139)">
        <g id="Сгруппировать_191" data-name="Сгруппировать 191">
          <path id="Контур_539" data-name="Контур 539" d="M185.509,120.239a1.319,1.319,0,0,0-1.319,1.319V180.75a.091.091,0,0,1-.091.091H137.593a1.319,1.319,0,1,0,0,2.637H184.1a2.731,2.731,0,0,0,2.728-2.728V121.558A1.319,1.319,0,0,0,185.509,120.239Z" transform="translate(-136.274 -120.239)" fill="#fff"/>
        </g>
      </g>
      <g id="Сгруппировать_194" data-name="Сгруппировать 194" transform="translate(56.112)">
        <g id="Сгруппировать_193" data-name="Сгруппировать 193" transform="translate(0)">
          <path id="Контур_540" data-name="Контур 540" d="M123.669,5.637H111.531l-4.425-4.425A4.11,4.11,0,0,0,104.18,0H58.84a2.731,2.731,0,0,0-2.728,2.728V81.65a2.731,2.731,0,0,0,2.728,2.728h2.909v2.909a2.731,2.731,0,0,0,2.728,2.728h59.192a2.731,2.731,0,0,0,2.728-2.728V8.365A2.731,2.731,0,0,0,123.669,5.637ZM105.257,3.093l12.41,12.41H105.347a.091.091,0,0,1-.091-.091Zm18.5,84.195a.091.091,0,0,1-.091.091H64.477a.091.091,0,0,1-.091-.091V84.378h1.5a1.319,1.319,0,1,0,0-2.637H58.84a.091.091,0,0,1-.091-.091V2.728a.091.091,0,0,1,.091-.091h43.78V15.412a2.731,2.731,0,0,0,2.728,2.728h14.093a1.319,1.319,0,0,0,1.319-1.319v-.242a4.11,4.11,0,0,0-1.212-2.925l-5.379-5.379h9.5a.091.091,0,0,1,.091.091Z" transform="translate(-56.112)" fill="#fff"/>
        </g>
      </g>
      <g id="Сгруппировать_196" data-name="Сгруппировать 196" transform="translate(64.568 14.677)">
        <g id="Сгруппировать_195" data-name="Сгруппировать 195" transform="translate(0)">
          <path id="Контур_541" data-name="Контур 541" d="M121.962,83.868a1.318,1.318,0,0,0-1.865,0l-7.459,7.459a.091.091,0,0,1-.128,0l-2.974-2.974h2.289a1.319,1.319,0,0,0,0-2.637h-3.479a2.707,2.707,0,0,0-1.177.271l-.71-.71a1.319,1.319,0,0,0-1.865,1.865l1.037,1.037c-.008.087-.013.176-.013.266V96.9a2.731,2.731,0,0,0,2.728,2.728H116.8a2.731,2.731,0,0,0,2.728-2.728V88.165l2.432-2.432A1.318,1.318,0,0,0,121.962,83.868ZM116.892,96.9a.091.091,0,0,1-.091.091h-8.456a.091.091,0,0,1-.091-.091V90.8l2.39,2.39a2.731,2.731,0,0,0,3.858,0l2.39-2.39v6.1Z" transform="translate(-104.208 -83.482)" fill="#fff"/>
        </g>
      </g>
      <g id="Сгруппировать_198" data-name="Сгруппировать 198" transform="translate(65.977 35.233)">
        <g id="Сгруппировать_197" data-name="Сгруппировать 197" transform="translate(0)">
          <path id="Контур_542" data-name="Контур 542" d="M123.409,200.4h-8.456a2.731,2.731,0,0,0-2.728,2.728v8.456a2.731,2.731,0,0,0,2.728,2.728h8.456a2.731,2.731,0,0,0,2.728-2.728v-8.456A2.731,2.731,0,0,0,123.409,200.4Zm.091,11.184a.091.091,0,0,1-.091.091h-8.456a.091.091,0,0,1-.091-.091v-8.456a.091.091,0,0,1,.091-.091h8.456a.091.091,0,0,1,.091.091Z" transform="translate(-112.225 -200.403)" fill="#fff"/>
        </g>
      </g>
      <g id="Сгруппировать_200" data-name="Сгруппировать 200" transform="translate(65.977 53.554)">
        <g id="Сгруппировать_199" data-name="Сгруппировать 199" transform="translate(0)">
          <path id="Контур_543" data-name="Контур 543" d="M123.409,304.613h-8.456a2.731,2.731,0,0,0-2.728,2.728V315.8a2.731,2.731,0,0,0,2.728,2.728h8.456a2.731,2.731,0,0,0,2.728-2.728v-8.456A2.731,2.731,0,0,0,123.409,304.613ZM123.5,315.8a.091.091,0,0,1-.091.091h-8.456a.091.091,0,0,1-.091-.091v-8.456a.091.091,0,0,1,.091-.091h8.456a.091.091,0,0,1,.091.091Z" transform="translate(-112.225 -304.613)" fill="#fff"/>
        </g>
      </g>
      <g id="Сгруппировать_202" data-name="Сгруппировать 202" transform="translate(84.298 19.731)">
        <g id="Сгруппировать_201" data-name="Сгруппировать 201" transform="translate(0)">
          <path id="Контур_544" data-name="Контур 544" d="M230.437,112.226H217.754a1.319,1.319,0,0,0,0,2.637h12.684a1.319,1.319,0,0,0,0-2.637Z" transform="translate(-216.435 -112.226)" fill="#fff"/>
        </g>
      </g>
      <g id="Сгруппировать_204" data-name="Сгруппировать 204" transform="translate(84.298 25.368)">
        <g id="Сгруппировать_203" data-name="Сгруппировать 203" transform="translate(0)">
          <path id="Контур_545" data-name="Контур 545" d="M241.712,144.291H217.754a1.319,1.319,0,0,0,0,2.637h23.958a1.319,1.319,0,0,0,0-2.637Z" transform="translate(-216.435 -144.291)" fill="#fff"/>
        </g>
      </g>
      <g id="Сгруппировать_206" data-name="Сгруппировать 206" transform="translate(84.298 38.052)">
        <g id="Сгруппировать_205" data-name="Сгруппировать 205" transform="translate(0)">
          <path id="Контур_546" data-name="Контур 546" d="M230.437,216.436H217.754a1.319,1.319,0,0,0,0,2.637h12.684a1.319,1.319,0,0,0,0-2.637Z" transform="translate(-216.435 -216.436)" fill="#fff"/>
        </g>
      </g>
      <g id="Сгруппировать_208" data-name="Сгруппировать 208" transform="translate(84.298 43.689)">
        <g id="Сгруппировать_207" data-name="Сгруппировать 207" transform="translate(0)">
          <path id="Контур_547" data-name="Контур 547" d="M241.712,248.5H217.754a1.319,1.319,0,0,0,0,2.637h23.958a1.319,1.319,0,0,0,0-2.637Z" transform="translate(-216.435 -248.5)" fill="#fff"/>
        </g>
      </g>
      <g id="Сгруппировать_210" data-name="Сгруппировать 210" transform="translate(84.298 56.373)">
        <g id="Сгруппировать_209" data-name="Сгруппировать 209" transform="translate(0)">
          <path id="Контур_548" data-name="Контур 548" d="M230.437,320.645H217.754a1.319,1.319,0,0,0,0,2.637h12.684a1.319,1.319,0,0,0,0-2.637Z" transform="translate(-216.435 -320.645)" fill="#fff"/>
        </g>
      </g>
      <g id="Сгруппировать_212" data-name="Сгруппировать 212" transform="translate(84.298 62.01)">
        <g id="Сгруппировать_211" data-name="Сгруппировать 211" transform="translate(0)">
          <path id="Контур_549" data-name="Контур 549" d="M241.712,352.709H217.754a1.319,1.319,0,0,0,0,2.637h23.958a1.319,1.319,0,0,0,0-2.637Z" transform="translate(-216.435 -352.709)" fill="#fff"/>
        </g>
      </g>
    </g>
  </g>
</svg>
