<svg xmlns="http://www.w3.org/2000/svg" width="126" height="126" viewBox="0 0 126 126">
  <g id="Сгруппировать_180" data-name="Сгруппировать 180" transform="translate(-170 493.695)">
    <rect id="Прямоугольник_40" data-name="Прямоугольник 40" width="126" height="126" rx="15" transform="translate(170 -493.695)" fill="#ff8e3c"/>
    <g id="online-course_1_" data-name="online-course (1)" transform="translate(188 -474.695)">
      <path id="Контур_515" data-name="Контур 515" d="M39.121,35.122a1.516,1.516,0,0,1-.642-.143L12.865,22.924a1.507,1.507,0,0,1,0-2.727L38.48,8.143a1.507,1.507,0,0,1,1.284,0L65.378,20.2a1.507,1.507,0,0,1,0,2.727L39.763,34.978a1.516,1.516,0,0,1-.642.143ZM17.046,21.561,39.121,31.95,61.2,21.561,39.121,11.172Z" transform="translate(6.081 4.054)" fill="#fff"/>
      <path id="Контур_516" data-name="Контур 516" d="M36.588,41.929a1.509,1.509,0,0,1-.674-.158L17.833,32.73A1.508,1.508,0,0,1,17,31.382V19.86A1.507,1.507,0,0,1,19.147,18.5L36.588,26.7,54.027,18.5a1.508,1.508,0,0,1,2.149,1.364V31.382a1.508,1.508,0,0,1-.833,1.349l-18.081,9.04a1.509,1.509,0,0,1-.674.158ZM20.013,30.451l16.574,8.287,16.574-8.287V22.234l-15.932,7.5a1.507,1.507,0,0,1-1.284,0l-15.932-7.5Z" transform="translate(8.615 9.3)" fill="#fff"/>
      <path id="Контур_517" data-name="Контур 517" d="M56.121,19.013H30.507a1.507,1.507,0,1,1,0-3.013H56.121a1.507,1.507,0,1,1,0,3.013Z" transform="translate(14.696 8.108)" fill="#fff"/>
      <path id="Контур_518" data-name="Контур 518" d="M47.507,32.574A1.507,1.507,0,0,1,46,31.067V17.507a1.507,1.507,0,1,1,3.013,0V31.067A1.507,1.507,0,0,1,47.507,32.574Z" transform="translate(23.31 8.108)" fill="#fff"/>
      <path id="Контур_519" data-name="Контур 519" d="M30.507,23.04A1.507,1.507,0,0,1,29,21.534V15.507a1.507,1.507,0,1,1,3.013,0v6.027A1.507,1.507,0,0,1,30.507,23.04Z" transform="translate(14.696 7.094)" fill="#fff"/>
      <path id="Контур_520" data-name="Контур 520" d="M45.505,32.534a1.507,1.507,0,0,1-1.252-2.343l3.013-4.52a1.507,1.507,0,0,1,2.507,1.672l-3.013,4.52A1.506,1.506,0,0,1,45.505,32.534Z" transform="translate(22.297 12.668)" fill="#fff"/>
      <path id="Контур_521" data-name="Контур 521" d="M50.522,32.534a1.506,1.506,0,0,1-1.255-.671l-3.013-4.52a1.507,1.507,0,0,1,2.507-1.672l3.013,4.52a1.507,1.507,0,0,1-1.252,2.343Z" transform="translate(23.31 12.668)" fill="#fff"/>
      <path id="Контур_522" data-name="Контур 522" d="M30.507,31.534A1.507,1.507,0,0,1,29,30.027v-4.52a1.507,1.507,0,1,1,3.013,0v4.52A1.507,1.507,0,0,1,30.507,31.534Z" transform="translate(14.696 12.162)" fill="#fff"/>
      <path id="Контур_523" data-name="Контур 523" d="M88.9,57.256H1.507A1.507,1.507,0,0,1,0,55.75V6.028A6.036,6.036,0,0,1,6.028,0H84.376A6.036,6.036,0,0,1,90.4,6.028V55.75A1.507,1.507,0,0,1,88.9,57.256ZM3.013,54.243H87.391V6.028a3.017,3.017,0,0,0-3.015-3.015H6.028A3.017,3.017,0,0,0,3.013,6.028Z" transform="translate(0)" fill="#fff"/>
      <path id="Контур_524" data-name="Контур 524" d="M84.376,51.067H6.028A6.036,6.036,0,0,1,0,45.039V37.507A1.507,1.507,0,0,1,1.507,36H88.9A1.507,1.507,0,0,1,90.4,37.507v7.532A6.036,6.036,0,0,1,84.376,51.067ZM3.013,39.013v6.025a3.017,3.017,0,0,0,3.015,3.015H84.376a3.017,3.017,0,0,0,3.015-3.015V39.013Z" transform="translate(0 18.243)" fill="#fff"/>
      <path id="Контур_525" data-name="Контур 525" d="M36.547,43.013h-9.04a1.507,1.507,0,0,1,0-3.013h9.04a1.507,1.507,0,0,1,0,3.013Z" transform="translate(13.175 20.27)" fill="#fff"/>
      <path id="Контур_526" data-name="Контур 526" d="M80.844,55.229H5.507A1.507,1.507,0,0,1,4,53.723V5.507A1.507,1.507,0,0,1,5.507,4H80.844a1.507,1.507,0,0,1,1.507,1.507V53.723A1.507,1.507,0,0,1,80.844,55.229ZM7.013,52.216H79.337V7.013H7.013Z" transform="translate(2.027 2.027)" fill="#fff"/>
      <path id="Контур_527" data-name="Контур 527" d="M57.7,61.04H18.52a4.52,4.52,0,1,1,0-9.04H57.7a4.52,4.52,0,1,1,0,9.04ZM18.52,55.013a1.507,1.507,0,0,0,0,3.013H57.7a1.507,1.507,0,0,0,0-3.013Z" transform="translate(7.094 26.351)" fill="#fff"/>
      <path id="Контур_528" data-name="Контур 528" d="M52.655,59.067H19.507a1.507,1.507,0,1,1,0-3.013c5,0,7.534-3.548,7.534-10.547A1.507,1.507,0,0,1,28.547,44H43.615a1.507,1.507,0,0,1,1.507,1.507c0,7,2.534,10.547,7.534,10.547a1.507,1.507,0,1,1,0,3.013ZM26.846,56.054H45.317c-1.856-2.055-2.949-5.115-3.167-9.04H30.013C29.793,50.939,28.7,54,26.846,56.054Z" transform="translate(9.121 22.297)" fill="#fff"/>
    </g>
  </g>
</svg>
