<svg xmlns="http://www.w3.org/2000/svg" width="126" height="126" viewBox="0 0 126 126">
  <g id="Сгруппировать_180" data-name="Сгруппировать 180" transform="translate(-170 493.695)">
    <rect id="Прямоугольник_40" data-name="Прямоугольник 40" width="126" height="126" rx="15" transform="translate(170 -493.695)" fill="#ff8e3c"/>
    <g id="free" transform="translate(185.674 -478.914)">
      <g id="Сгруппировать_232" data-name="Сгруппировать 232" transform="translate(0 0.001)">
        <g id="Сгруппировать_231" data-name="Сгруппировать 231" transform="translate(0 0)">
          <path id="Контур_559" data-name="Контур 559" d="M95.406,36.885,90.854,11.706a8.739,8.739,0,0,0-7.014-7.014L58.661.14a8.705,8.705,0,0,0-7.7,2.41L2.544,50.966a8.711,8.711,0,0,0,0,12.3L32.275,93a8.711,8.711,0,0,0,12.3,0L93,44.585A8.7,8.7,0,0,0,95.406,36.885Zm-6.372,3.738L40.617,89.04a3.1,3.1,0,0,1-4.38,0L6.506,59.308a3.1,3.1,0,0,1,0-4.38L54.923,6.511a3.1,3.1,0,0,1,2.741-.858l25.18,4.552a3.11,3.11,0,0,1,2.5,2.5l4.552,25.179A3.1,3.1,0,0,1,89.034,40.623Z" transform="translate(0 -0.001)" fill="#fff"/>
        </g>
      </g>
      <g id="Сгруппировать_234" data-name="Сгруппировать 234" transform="translate(64.907 15.228)">
        <g id="Сгруппировать_233" data-name="Сгруппировать 233">
          <path id="Контур_560" data-name="Контур 560" d="M360.911,83.841a7.67,7.67,0,1,0,2.246,5.424A7.678,7.678,0,0,0,360.911,83.841Zm-3.962,6.885h0a2.067,2.067,0,1,1,.605-1.461A2.068,2.068,0,0,1,356.949,90.726Z" transform="translate(-347.821 -81.598)" fill="#fff"/>
        </g>
      </g>
      <g id="Сгруппировать_236" data-name="Сгруппировать 236" transform="translate(22.071 55.11)">
        <g id="Сгруппировать_235" data-name="Сгруппировать 235">
          <path id="Контур_561" data-name="Контур 561" d="M131.834,311.406l-4.329-4.329,2.534-2.534a.936.936,0,0,0,.285-.889,1.712,1.712,0,0,0-.486-.889,1.746,1.746,0,0,0-.931-.512.943.943,0,0,0-.881.277l-2.534,2.534-2.836-2.836L127,297.882a.92.92,0,0,0,.243-.914,2.152,2.152,0,0,0-.612-1.032,2.126,2.126,0,0,0-.99-.587.913.913,0,0,0-.922.252l-5.822,5.822a2.106,2.106,0,0,0-.6,1.015.939.939,0,0,0,.26.931l10.655,10.655a.922.922,0,0,0,.982.21,3.022,3.022,0,0,0,1.845-1.846A.921.921,0,0,0,131.834,311.406Z" transform="translate(-118.271 -295.314)" fill="#fff"/>
        </g>
      </g>
      <g id="Сгруппировать_238" data-name="Сгруппировать 238" transform="translate(30.659 47.232)">
        <g id="Сгруппировать_237" data-name="Сгруппировать 237">
          <path id="Контур_562" data-name="Контур 562" d="M183.346,262.085a.717.717,0,0,0-.386-.218l-5.755-1.661q1.241-2.818-1.376-5.436-3.59-3.59-7.719.537l-3.474,3.474a1.114,1.114,0,0,0-.017,1.594l10.672,10.672a.921.921,0,0,0,.982.21,3.022,3.022,0,0,0,1.846-1.845.921.921,0,0,0-.21-.982l-4.044-4.044,1.108-1.108,6.762,2.164a1.232,1.232,0,0,0,1.326-.352,2.443,2.443,0,0,0,.679-1.553A1.722,1.722,0,0,0,183.346,262.085Zm-9.833-1.376-1.661,1.661-3.121-3.121,1.661-1.661a2.213,2.213,0,1,1,3.121,3.121Z" transform="translate(-164.293 -253.099)" fill="#fff"/>
        </g>
      </g>
      <g id="Сгруппировать_240" data-name="Сгруппировать 240" transform="translate(40.511 36.518)">
        <g id="Сгруппировать_239" data-name="Сгруппировать 239">
          <path id="Контур_563" data-name="Контур 563" d="M236.207,207.315a2.125,2.125,0,0,0-.587-.99,2.155,2.155,0,0,0-1.032-.612.921.921,0,0,0-.914.243l-4.5,4.5-2.852-2.852,2.517-2.517a.936.936,0,0,0,.285-.889,1.712,1.712,0,0,0-.486-.889,1.746,1.746,0,0,0-.931-.512.944.944,0,0,0-.881.277l-2.517,2.517-2.836-2.836,4.5-4.5a.92.92,0,0,0,.244-.914,2.152,2.152,0,0,0-.612-1.032,2.125,2.125,0,0,0-.99-.587.914.914,0,0,0-.923.252l-5.973,5.973a2.107,2.107,0,0,0-.6,1.015.939.939,0,0,0,.26.931l10.655,10.655a.937.937,0,0,0,.931.26,2.1,2.1,0,0,0,1.015-.6l5.973-5.973A.912.912,0,0,0,236.207,207.315Z" transform="translate(-217.09 -195.686)" fill="#fff"/>
        </g>
      </g>
      <g id="Сгруппировать_242" data-name="Сгруппировать 242" transform="translate(49.555 27.474)">
        <g id="Сгруппировать_241" data-name="Сгруппировать 241">
          <path id="Контур_564" data-name="Контур 564" d="M284.671,158.852a2.126,2.126,0,0,0-.587-.99,2.154,2.154,0,0,0-1.032-.612.921.921,0,0,0-.914.243l-4.5,4.5-2.852-2.852,2.517-2.517a.936.936,0,0,0,.285-.889,1.711,1.711,0,0,0-.487-.889,1.744,1.744,0,0,0-.931-.512.943.943,0,0,0-.881.277l-2.517,2.517-2.836-2.836,4.5-4.5a.92.92,0,0,0,.244-.914,2.153,2.153,0,0,0-.612-1.032,2.126,2.126,0,0,0-.99-.587.913.913,0,0,0-.923.252l-5.973,5.973a2.107,2.107,0,0,0-.6,1.015.939.939,0,0,0,.26.931L276.5,166.084a.938.938,0,0,0,.931.26,2.1,2.1,0,0,0,1.015-.6l5.973-5.973A.913.913,0,0,0,284.671,158.852Z" transform="translate(-265.554 -147.223)" fill="#fff"/>
        </g>
      </g>
    </g>
  </g>
</svg>
