<svg xmlns="http://www.w3.org/2000/svg" width="126" height="126" viewBox="0 0 126 126">
  <g id="Сгруппировать_180" data-name="Сгруппировать 180" transform="translate(-170 493.695)">
    <rect id="Прямоугольник_40" data-name="Прямоугольник 40" width="126" height="126" rx="15" transform="translate(170 -493.695)" fill="#ff8e3c"/>
    <g id="module" transform="translate(188.497 -477.67)">
      <path id="Контур_534" data-name="Контур 534" d="M242.794,61.618a1.829,1.829,0,0,0,2.587,0l5.786-5.785a1.829,1.829,0,1,0-2.587-2.588l-5.786,5.786a1.83,1.83,0,0,0,0,2.587Zm0,0" transform="translate(-207.445 -44.972)" fill="#fff"/>
      <path id="Контур_535" data-name="Контур 535" d="M308.975,61.618a1.828,1.828,0,0,0,2.586,0l5.786-5.785a1.83,1.83,0,1,0-2.587-2.588l-5.786,5.786a1.829,1.829,0,0,0,0,2.587Zm0,0" transform="translate(-264 -44.972)" fill="#fff"/>
      <path id="Контур_536" data-name="Контур 536" d="M86.822,70.9H80.35V64.826A1.831,1.831,0,0,0,78.521,63H71.645v-4.16h6.473a2.747,2.747,0,0,0,2.744-2.744v-16.6a2.747,2.747,0,0,0-2.744-2.744H71.645V30.819a1.829,1.829,0,0,0-1.83-1.83H46.285V24.837h13.29a2.857,2.857,0,0,0,2.853-2.854V2.936A2.857,2.857,0,0,0,59.575.082H51.487a1.83,1.83,0,0,0,0,3.659H58.77V21.178H30.143V3.741H36.81a1.83,1.83,0,1,0,0-3.659H29.337a2.857,2.857,0,0,0-2.853,2.853V21.983a2.857,2.857,0,0,0,2.853,2.854h13.29V28.99h-24.5a1.829,1.829,0,0,0-1.83,1.83v5.926H9.825a2.747,2.747,0,0,0-2.744,2.744v16.6a2.746,2.746,0,0,0,2.744,2.744H16.3V63H10.648a1.83,1.83,0,0,0-1.83,1.83V70.9H2.247A2.747,2.747,0,0,0-.5,73.643v16.6a2.747,2.747,0,0,0,2.744,2.745h16.6a2.748,2.748,0,0,0,2.744-2.745v-16.6A2.747,2.747,0,0,0,18.851,70.9H12.477V66.655h30.15V70.9H36.263a2.856,2.856,0,0,0-2.853,2.854V90.138a2.856,2.856,0,0,0,2.853,2.854h.927a1.83,1.83,0,1,0,0-3.659h-.121V74.558H51.843V89.333h-.128a1.83,1.83,0,1,0,0,3.659h.933A2.856,2.856,0,0,0,55.5,90.138V73.753A2.856,2.856,0,0,0,52.648,70.9H46.285V66.655H76.691V70.9H70.218a2.747,2.747,0,0,0-2.744,2.744v16.6a2.747,2.747,0,0,0,2.744,2.745h16.6a2.748,2.748,0,0,0,2.744-2.745v-16.6A2.747,2.747,0,0,0,86.822,70.9ZM17.936,74.558V89.333H3.161V74.558Zm-7.2-19.379V40.4H25.514V55.179ZM67.987,63H19.956v-4.16h6.473a2.747,2.747,0,0,0,2.744-2.744v-16.6a2.747,2.747,0,0,0-2.744-2.744H19.956v-4.1h48.03v4.1H61.514a2.747,2.747,0,0,0-2.744,2.744v16.6a2.746,2.746,0,0,0,2.744,2.744h6.473Zm-5.559-7.818V40.4H77.2V55.179ZM85.907,89.333H71.133V74.558H85.907Zm0,0" fill="#fff"/>
      <path id="Контур_537" data-name="Контур 537" d="M294.922,3.37l.053.04A1.829,1.829,0,1,0,297.189.5l-.054-.041a1.829,1.829,0,0,0-2.214,2.913Zm0,0" transform="translate(-251.831 -0.001)" fill="#fff"/>
      <path id="Контур_538" data-name="Контур 538" d="M298.782,613.519l-.053-.04a1.829,1.829,0,1,0-2.213,2.914l.053.041a1.83,1.83,0,1,0,2.213-2.914Zm0,0" transform="translate(-253.193 -523.857)" fill="#fff"/>
    </g>
  </g>
</svg>
