<svg xmlns="http://www.w3.org/2000/svg" width="126" height="126" viewBox="0 0 126 126">
  <g id="Сгруппировать_180" data-name="Сгруппировать 180" transform="translate(-170 493.695)">
    <rect id="Прямоугольник_40" data-name="Прямоугольник 40" width="126" height="126" rx="15" transform="translate(170 -493.695)" fill="#ff8e3c"/>
    <g id="_11-call_center_support" data-name="11-call center support" transform="translate(184 -480.122)">
      <g id="linear_color" data-name="linear color" transform="translate(4 4)">
        <path id="Контур_550" data-name="Контур 550" d="M68.59,35.8V30.3A2.153,2.153,0,0,0,66.7,28.162l-4.55-.562-1.424-3.44,2.819-3.615A2.153,2.153,0,0,0,63.37,17.7L54.891,9.221a2.153,2.153,0,0,0-2.846-.175L48.43,11.864l-3.44-1.424-.562-4.55A2.153,2.153,0,0,0,42.291,4H30.3a2.153,2.153,0,0,0-2.137,1.889l-.562,4.55-3.44,1.424L20.546,9.045A2.153,2.153,0,0,0,17.7,9.22L9.221,17.7a2.153,2.153,0,0,0-.175,2.846l2.819,3.615L10.44,27.6l-4.55.562A2.153,2.153,0,0,0,4,30.3V42.291a2.153,2.153,0,0,0,1.889,2.137l4.55.562,1.424,3.44L9.045,52.045a2.153,2.153,0,0,0,.175,2.846L17.7,63.37a2.153,2.153,0,0,0,2.846.175l3.615-2.819,3.44,1.424.562,4.55A2.153,2.153,0,0,0,30.3,68.59h5.5A29.425,29.425,0,1,0,68.59,35.8ZM31.72,60.378a2.154,2.154,0,0,0-1.313-1.725L24.65,56.268a2.153,2.153,0,0,0-2.148.291l-3.1,2.42L13.61,53.192l2.42-3.1a2.153,2.153,0,0,0,.291-2.148l-2.384-5.758a2.154,2.154,0,0,0-1.725-1.313l-3.905-.482V32.2l3.906-.482a2.154,2.154,0,0,0,1.725-1.313l2.384-5.758A2.153,2.153,0,0,0,16.03,22.5l-2.42-3.1L19.4,13.61l3.1,2.42a2.153,2.153,0,0,0,2.148.291l5.758-2.384a2.154,2.154,0,0,0,1.313-1.725L32.2,8.306h8.185l.482,3.906a2.154,2.154,0,0,0,1.313,1.725l5.758,2.384a2.153,2.153,0,0,0,2.148-.291l3.1-2.42L58.981,19.4l-2.42,3.1a2.153,2.153,0,0,0-.291,2.148l2.384,5.758a2.154,2.154,0,0,0,1.725,1.313l3.905.482v3.384a29.227,29.227,0,0,0-11.765,2.774A16.381,16.381,0,1,0,38.36,52.522a29.227,29.227,0,0,0-2.773,11.762H32.2Zm9.959-13.293a12.057,12.057,0,1,1,5.406-5.406,29.682,29.682,0,0,0-5.406,5.406ZM65,90.12A25.118,25.118,0,1,1,90.12,65,25.146,25.146,0,0,1,65,90.12Z" transform="translate(-4 -4)" fill="#fff"/>
        <path id="Контур_551" data-name="Контур 551" d="M266.037,243.789h-3.588v-2.153a13.636,13.636,0,0,0-27.271,0v2.153h-3.588A3.592,3.592,0,0,0,228,247.377v7.536a3.233,3.233,0,0,0,3.23,3.23h3.947v.718a6.466,6.466,0,0,0,6.459,6.459h10.047a2.153,2.153,0,1,0,0-4.306H241.636a2.155,2.155,0,0,1-2.153-2.153V241.636a9.33,9.33,0,0,1,18.659,0v14.353a2.153,2.153,0,0,0,2.153,2.153h6.1a3.233,3.233,0,0,0,3.23-3.23v-7.536A3.593,3.593,0,0,0,266.037,243.789Zm-33.731,4.306h2.871v5.741h-2.871Zm33.013,5.741h-2.871v-5.741h2.871Z" transform="translate(-187.81 -187.81)" fill="#fff"/>
      </g>
    </g>
  </g>
</svg>
