<svg xmlns="http://www.w3.org/2000/svg" width="126" height="126" viewBox="0 0 126 126">
  <g id="Сгруппировать_180" data-name="Сгруппировать 180" transform="translate(-170 493.695)">
    <rect id="Прямоугольник_40" data-name="Прямоугольник 40" width="126" height="126" rx="15" transform="translate(170 -493.695)" fill="#ff8e3c"/>
    <g id="teacher" transform="translate(180.98 -510.784)">
      <path id="Контур_529" data-name="Контур 529" d="M404.55,297.352H394.8a1.524,1.524,0,1,0,0,3.047h9.752a1.524,1.524,0,0,0,0-3.047Z" transform="translate(-313.375 -208.708)" fill="#fff"/>
      <path id="Контур_530" data-name="Контур 530" d="M404.55,328.181H394.8a1.524,1.524,0,0,0,0,3.047h9.752a1.524,1.524,0,0,0,0-3.047Z" transform="translate(-313.375 -233.274)" fill="#fff"/>
      <path id="Контур_531" data-name="Контур 531" d="M404.55,266.523H394.8a1.524,1.524,0,1,0,0,3.047h9.752a1.524,1.524,0,0,0,0-3.047Z" transform="translate(-313.375 -184.143)" fill="#fff"/>
      <path id="Контур_532" data-name="Контур 532" d="M281.976,256.769a2.467,2.467,0,0,0-2.465,2.465v1.444h-3.575a2.467,2.467,0,0,0-2.464,2.464v1.3h-3.585a2.467,2.467,0,0,0-2.464,2.464v7.136a2.264,2.264,0,0,0,2.261,2.261h16.664a2.264,2.264,0,0,0,2.261-2.261V259.234a2.467,2.467,0,0,0-2.464-2.465Zm-8.5,16.49h-3v-5.767h3Zm6.04,0h-2.992v-9.534h2.992Zm6.049,0h-2.992c0-9.855-.01-12.988-.01-13.443h3v13.443Z" transform="translate(-213.092 -176.37)" fill="#fff"/>
      <path id="Контур_533" data-name="Контур 533" d="M3.747,125.054H29.493a1.524,1.524,0,1,0,0-3.047H13.836v-20.47a1.524,1.524,0,0,0-3.047,0v20.47H3.747a.7.7,0,0,1-.7-.7V99.74A9.915,9.915,0,0,1,8.765,90.8l9.908-3.869,5.9,5.9a11.987,11.987,0,0,0,16.957,0l5.814-5.814v20.166a3.915,3.915,0,0,0,3.91,3.91h1.01v10.914H36.6a1.524,1.524,0,0,0,0,3.047H62.349a3.751,3.751,0,0,0,3.747-3.747V111.094H72.42v4.673a4.77,4.77,0,1,0,3.047,0v-4.673h21.17a3.915,3.915,0,0,0,3.91-3.91V93.723a1.524,1.524,0,1,0-3.047,0v13.46a.864.864,0,0,1-.863.863H51.25a.864.864,0,0,1-.863-.863V71.559H97.5V86.613a1.524,1.524,0,1,0,3.047,0V71.559h0a3.475,3.475,0,0,0,3.471-3.471V65.151a3.475,3.475,0,0,0-3.471-3.471H52.517a6.6,6.6,0,0,0-2.587-4.112,3.822,3.822,0,0,0,.229-1.3V46.43a5.376,5.376,0,0,0-5.674-5.368.758.758,0,0,1-.841-.559c-.667-3.412-2.811-5.071-6.554-5.071H24.159A10.129,10.129,0,0,0,14.041,45.548v9.431a5.122,5.122,0,0,0,1.323,3.44A6.258,6.258,0,0,0,19.31,69.156a13.85,13.85,0,0,0,5.384,9.133v3.021L7.642,87.97l-.026.01A12.884,12.884,0,0,0,0,99.74v21.567a3.751,3.751,0,0,0,3.747,3.747Zm70.2-6.492a1.722,1.722,0,1,1-1.722,1.722A1.724,1.724,0,0,1,73.944,118.562Zm-18.637-7.469h7.741v10.214a.7.7,0,0,1-.7.7H55.308V111.093ZM29.07,92.362l2.981-3,.005-.006a2.639,2.639,0,0,0,.339-.433h1.277a2.6,2.6,0,0,0,.345.439l2.99,3.01a8.933,8.933,0,0,1-7.938-.008ZM27.74,81.674c0-.039,0-.077,0-.117V79.993a14.431,14.431,0,0,0,10.6.024v1.552c0,.029,0,.058,0,.087L34.1,85.874H31.97ZM39.5,90.551l-2.87-2.89,3.533-3.508,4.134,1.6Zm7.844-6.885-5.946-2.3,0-3.058A13.744,13.744,0,0,0,46.3,71.4a3.455,3.455,0,0,0,1.043.161h0Zm53.209-18.939a.424.424,0,0,1,.424.424v2.937a.424.424,0,0,1-.424.424H47.339a.424.424,0,0,1-.424-.424V65.15a.424.424,0,0,1,.424-.424ZM47.8,59.819a3.524,3.524,0,0,1,1.565,1.86h-2.03a4.237,4.237,0,0,0-.424.026V60.073A4.112,4.112,0,0,0,47.8,59.819ZM19.18,66.048A3.331,3.331,0,0,1,16.51,62.9a3.53,3.53,0,0,1,1.683-2.875,5.14,5.14,0,0,0,.736.09q.125.006.251.007v5.926Zm0-8.974a2.1,2.1,0,0,1-2.095-2.095V45.548a7.078,7.078,0,0,1,7.07-7.07H37.09c2.823,0,3.284,1.181,3.563,2.608A3.809,3.809,0,0,0,44.718,44.1a2.333,2.333,0,0,1,2.393,2.33v9.842a.818.818,0,0,1-.8.8,2.928,2.928,0,0,1-2.914-2.914,1.755,1.755,0,0,0-3.3-.828,7.063,7.063,0,0,1-6.237,3.742H19.184Zm3.044,10.25v-7.2H33.86a10.11,10.11,0,0,0,7.245-3.055,6,6,0,0,0,2.763,2.53v7.728a10.822,10.822,0,0,1-21.64,0Zm3.65,16.8,3.567,3.541-2.857,2.877-4.815-4.815Z" fill="#fff"/>
    </g>
  </g>
</svg>
