<svg xmlns="http://www.w3.org/2000/svg" width="126" height="126" viewBox="0 0 126 126">
  <g id="Avatar" transform="translate(0)">
    <rect id="Прямоугольник_35" data-name="Прямоугольник 35" width="126" height="126" rx="15" transform="translate(0)" fill="#fff"/>
    <g id="Сгруппировать_179" data-name="Сгруппировать 179" transform="translate(20.415 8.764)">
      <g id="student_1_" data-name="student (1)">
        <path id="Контур_36" data-name="Контур 36" d="M409.655,633.1h3.554v3.554h-3.554Z" transform="translate(-383.003 -578.022)" fill="#348fd9"/>
        <path id="Контур_37" data-name="Контур 37" d="M484.138,633.1h3.554v3.554h-3.554Z" transform="translate(-450.378 -578.022)" fill="#348fd9"/>
        <path id="Контур_38" data-name="Контур 38" d="M409.655,707.586h3.554v3.554h-3.554Z" transform="translate(-383.003 -645.398)" fill="#348fd9"/>
        <path id="Контур_39" data-name="Контур 39" d="M484.138,707.586h3.554v3.554h-3.554Z" transform="translate(-450.378 -645.398)" fill="#348fd9"/>
        <path id="Контур_40" data-name="Контур 40" d="M375.115,577.241V580.8H353.793" transform="translate(-332.471 -527.491)" fill="#d6d6d4"/>
        <path id="Контур_41" data-name="Контур 41" d="M353.793,428.276" transform="translate(-332.471 -392.74)" fill="#ea4a3b"/>
        <path id="Контур_42" data-name="Контур 42" d="M354.026,544.478V532.04a10.659,10.659,0,0,1,10.639-10.661h21.322a10.664,10.664,0,0,1,10.661,10.661v12.438Z" transform="translate(-332.682 -476.959)" fill="#3c5174"/>
        <path id="Контур_43" data-name="Контур 43" d="M456.7,498.708V517.9H428.276v-19.19l1.777-.355,3.554-1.777V484.138h17.768v12.438l3.554,1.777Z" transform="translate(-399.847 -443.271)" fill="#fec9a3"/>
        <path id="Контур_44" data-name="Контур 44" d="M501.906,490.868v-6.73H484.138v6.73A19.439,19.439,0,0,0,501.906,490.868Z" transform="translate(-450.378 -443.271)" fill="#feb784"/>
        <path id="Контур_45" data-name="Контур 45" d="M215.632,656.637v.133a7.459,7.459,0,0,1-14.348,2.865l-6.974-16.724v21.322H151.667V642.912l-6.974,16.724a7.462,7.462,0,0,1-14.348-3v-.044a7.194,7.194,0,0,1,.422-2.465l10.194-29.117a9.758,9.758,0,0,1,7.24-6.308l3.465-.666,8.884-1.777,3.554-1.777v1.6a9.043,9.043,0,0,0,9.062,9.062,8.874,8.874,0,0,0,8.706-8.884v-1.777l3.554,1.777,8.884,1.777,3.376.666a9.678,9.678,0,0,1,7.285,6.441L215.21,654.15a7.229,7.229,0,0,1,.422,2.487Z" transform="translate(-130.345 -561.178)" fill="#f35244"/>
        <path id="Контур_46" data-name="Контур 46" d="M484.5,736.435v.133a7.459,7.459,0,0,1-14.348,2.865l-6.974-16.724v21.322h-35.6C445.257,735.7,460.2,724.8,472.753,702.7a9.114,9.114,0,0,1,1.088,2.243l10.239,29.006a7.229,7.229,0,0,1,.422,2.487Z" transform="translate(-399.215 -640.976)" fill="#ea4a3b"/>
        <path id="Контур_47" data-name="Контур 47" d="M136.875,847.241l13.815,8.573-6,14.37a7.461,7.461,0,0,1-14.348-2.865v-.156a7.193,7.193,0,0,1,.422-2.465Z" transform="translate(-130.345 -771.727)" fill="#feb784"/>
        <path id="Контур_48" data-name="Контур 48" d="M828.538,864.659v.133a7.459,7.459,0,0,1-14.348,2.865l-6.285-15.081,13.97-8.129,6.241,17.7a7.446,7.446,0,0,1,.422,2.51Z" transform="translate(-743.252 -769.2)" fill="#feb784"/>
        <path id="Контур_49" data-name="Контур 49" d="M441.638,109.095v10.661a15.981,15.981,0,0,1-15.991,15.991,14.644,14.644,0,0,1-2.2-.155h0a15.987,15.987,0,0,1-13.792-15.836V109.095a15.991,15.991,0,0,1,31.983,0Z" transform="translate(-383.003 -89.55)" fill="#fec9a3"/>
        <path id="Контур_50" data-name="Контур 50" d="M572.388,111.832v10.661A15.981,15.981,0,0,1,556.4,138.484a14.643,14.643,0,0,1-2.2-.155,19.558,19.558,0,0,0,11.083-17.613V110.055a19.461,19.461,0,0,0-5.73-13.815l-.111-.111A15.988,15.988,0,0,1,572.388,111.832Z" transform="translate(-513.754 -92.287)" fill="#fec093"/>
        <path id="Контур_51" data-name="Контур 51" d="M441.638,66.523v8.884l-5.33-7.107H414.986l-5.33,7.107V66.523a10.664,10.664,0,0,1,10.661-10.661h10.661A10.664,10.664,0,0,1,441.638,66.523Z" transform="translate(-383.003 -55.862)" fill="#95573a"/>
        <path id="Контур_52" data-name="Контур 52" d="M467.95,279.31a2.665,2.665,0,1,0,2.665,2.665h0A2.659,2.659,0,0,0,467.95,279.31Z" transform="translate(-433.324 -257.989)" fill="#7a432a"/>
        <path id="Контур_53" data-name="Контур 53" d="M634.838,279.31a2.665,2.665,0,1,0,2.665,2.665h0A2.673,2.673,0,0,0,634.838,279.31Z" transform="translate(-584.287 -257.989)" fill="#7a432a"/>
        <path id="Контур_54" data-name="Контур 54" d="M524.667,385.745h-3.754v-3.554h3.754a21.991,21.991,0,0,0,6.352-.933l1.044,3.4a25.269,25.269,0,0,1-7.4,1.088Z" transform="translate(-483.645 -350.209)" fill="#f7a468"/>
        <path id="Контур_55" data-name="Контур 55" d="M340.5,260.69h1.777V271.35H340.5a5.33,5.33,0,0,1,0-10.661Z" transform="translate(-315.628 -241.145)" fill="#feb784"/>
        <path id="Контур_56" data-name="Контур 56" d="M746.6,271.35h-1.777V260.69H746.6a5.33,5.33,0,1,1,0,10.661Z" transform="translate(-686.193 -241.145)" fill="#feb784"/>
        <path id="Контур_57" data-name="Контур 57" d="M353.793,634.88l8.884-1.777v47.974h-8.884Z" transform="translate(-332.471 -578.022)" fill="#49648e"/>
        <path id="Контур_58" data-name="Контур 58" d="M716.47,634.88v46.2h-8.884V633.1Z" transform="translate(-652.505 -578.022)" fill="#49648e"/>
        <path id="Контур_59" data-name="Контур 59" d="M130.345,792.41a6.574,6.574,0,0,0,6.574,6.574h1.466a6.564,6.564,0,0,0,6.063-4.042l7.218-17.279h10.661V763.448H151.667L131.788,788.3a6.569,6.569,0,0,0-1.444,4.109Z" transform="translate(-130.345 -695.93)" fill="#fec9a3"/>
        <path id="Контур_60" data-name="Контур 60" d="M688.965,763.448v14.214h10.661l7.2,17.279a6.587,6.587,0,0,0,6.063,4.042h1.466a6.573,6.573,0,0,0,5.13-10.683l-19.856-24.853Z" transform="translate(-635.661 -695.93)" fill="#fec9a3"/>
        <path id="Контур_61" data-name="Контур 61" d="M569.441,66.523v8.884L564.11,68.3H561.6A19.638,19.638,0,0,0,550.94,55.862h7.84a10.664,10.664,0,0,1,10.661,10.661Z" transform="translate(-510.806 -55.862)" fill="#8f4d2e"/>
      </g>
    </g>
  </g>
</svg>
