<svg id="Avatar" xmlns="http://www.w3.org/2000/svg" width="126" height="126" viewBox="0 0 126 126">
  <rect id="Прямоугольник_36" data-name="Прямоугольник 36" width="126" height="126" rx="15" fill="#fff"/>
  <g id="teacher" transform="translate(16.457 15.79)">
    <path id="Контур_62" data-name="Контур 62" d="M193.5,73.6l-.527,4.745-.356,3.2H147.861l-.356-3.2-.527-4.745a24.592,24.592,0,0,1,1.838-12.4,24.615,24.615,0,0,0,1.958-10.914l-.278-5.53a19.765,19.765,0,1,1,39.481,0l-.278,5.53A24.615,24.615,0,0,0,191.658,61.2,24.579,24.579,0,0,1,193.5,73.6Z" transform="translate(-122.289 -24.004)" fill="#8f4d2e"/>
    <path id="Контур_63" data-name="Контур 63" d="M267.461,73.6l-.527,4.745H249V60.759l3.2-6.393V41.58A17.6,17.6,0,0,0,239.26,24.62a19.787,19.787,0,0,1,24.683,20.13l-.278,5.53a24.616,24.616,0,0,0,1.958,10.914A24.579,24.579,0,0,1,267.461,73.6Z" transform="translate(-196.255 -23.999)" fill="#82462a"/>
    <path id="Контур_64" data-name="Контур 64" d="M227.819,228.786a2.236,2.236,0,0,1-2.238-2.238V216H212.795v10.549a2.236,2.236,0,0,1-2.238,2.238H208v9.59h22.376v-9.59Z" transform="translate(-171.24 -177.641)" fill="#fec9a3"/>
    <path id="Контур_65" data-name="Контур 65" d="M239.357,223.991a8.769,8.769,0,0,0,5.429-1.959V216H232v6.031a8.77,8.77,0,0,0,5.429,1.96Z" transform="translate(-190.445 -177.641)" fill="#feb784"/>
    <path id="Контур_66" data-name="Контур 66" d="M220.769,89.59v7.991a14.384,14.384,0,1,1-28.769,0V89.59a21.684,21.684,0,0,0,7.372-8.351L199.991,80l.907.757a39.906,39.906,0,0,0,19.871,8.832Z" transform="translate(-158.436 -68.812)" fill="#fec9a3"/>
    <path id="Контур_67" data-name="Контур 67" d="M289.392,122.15v7.991a14.391,14.391,0,0,1-11.636,14.122A17.518,17.518,0,0,0,283,131.74V120.69a39.862,39.862,0,0,0,6.393,1.46Z" transform="translate(-227.059 -101.373)" fill="#fec093"/>
    <path id="Контур_68" data-name="Контур 68" d="M218.4,140.795a2.4,2.4,0,1,1,2.4-2.4A2.4,2.4,0,0,1,218.4,140.795Z" transform="translate(-177.641 -113.624)" fill="#7a432a"/>
    <path id="Контур_69" data-name="Контур 69" d="M290.4,140.795a2.4,2.4,0,1,1,2.4-2.4A2.4,2.4,0,0,1,290.4,140.795Z" transform="translate(-235.257 -113.624)" fill="#7a432a"/>
    <path id="Контур_70" data-name="Контур 70" d="M244.795,180.795A4.8,4.8,0,0,1,240,176h3.2a1.6,1.6,0,0,0,3.2,0h3.2A4.8,4.8,0,0,1,244.795,180.795Z" transform="translate(-196.847 -145.633)" fill="#f7a468"/>
    <path id="Контур_71" data-name="Контур 71" d="M224,312h15.983v11.188H224Z" transform="translate(-184.043 -254.462)" fill="#e0e0de"/>
    <path id="Контур_72" data-name="Контур 72" d="M149.267,321.489a4.851,4.851,0,0,1-5.388-3.218l-10.557-19.8a12.447,12.447,0,0,1-2.23,11.9v12.786H102.324V310.367a12.466,12.466,0,0,1-2.206-12.049L89.39,318.271a4.849,4.849,0,1,1-9.208-3.045l11.735-29.21a9.587,9.587,0,0,1,8.9-6.016h6.3l9.59,17.581L126.3,280h6.279a9.6,9.6,0,0,1,8.91,6.047l11.6,29.178a4.852,4.852,0,0,1-3.822,6.263Z" transform="translate(-68.76 -228.855)" fill="#ec8c8c"/>
    <path id="Контур_73" data-name="Контур 73" d="M74.166,398.986,75.319,384h9.59v15.4a5.379,5.379,0,1,1-10.742-.413Z" transform="translate(-64.131 -312.078)" fill="#f59898"/>
    <path id="Контур_74" data-name="Контур 74" d="M38.948,266.926a3.109,3.109,0,0,0-2.027,4.407l1.463,2.925H32.657a9.59,9.59,0,0,1-4.289-1.012l-1.593-.8A1.918,1.918,0,0,0,24,274.165v4.511a3.2,3.2,0,0,0,1.767,2.859l2.6,1.3a9.589,9.589,0,0,0,4.289,1.012H44.778v-9.59l-2.189-5.471A3.109,3.109,0,0,0,38.948,266.926Z" transform="translate(-24 -218.318)" fill="#fec9a3"/>
    <path id="Контур_75" data-name="Контур 75" d="M80,352h9.59v6.393H80Z" transform="translate(-68.812 -286.471)" fill="#e0e0de"/>
    <path id="Контур_76" data-name="Контур 76" d="M241.048,324.882a4.851,4.851,0,0,1-5.388-3.219l-10.557-19.8a12.446,12.446,0,0,1-2.23,11.9v12.786H194.63c13.192-8.615,24.322-19.547,33.664-42.306a9.574,9.574,0,0,1,4.975,5.2l11.6,29.178a4.852,4.852,0,0,1-3.822,6.263Z" transform="translate(-160.541 -232.248)" fill="#e07f7f"/>
    <path id="Контур_77" data-name="Контур 77" d="M311.983,361.572,296,358.376V336l15.983,3.2Z" transform="translate(-241.659 -273.667)" fill="#a36548"/>
    <path id="Контур_78" data-name="Контур 78" d="M408,361.572l15.983-3.2V336L408,339.2Z" transform="translate(-331.283 -273.667)" fill="#8f4d2e"/>
    <path id="Контур_79" data-name="Контур 79" d="M376,352h6.393v22.376H376Z" transform="translate(-305.676 -286.471)" fill="#95573a"/>
    <path id="Контур_80" data-name="Контур 80" d="M315.179,319.991a5.66,5.66,0,0,0-4.729-5.583L296,312v4.795l15.983,3.2h3.2a5.66,5.66,0,0,1,4.729-5.583L334.359,312v4.795l-15.983,3.2Z" transform="translate(-241.659 -254.462)" fill="#d4bd81"/>
    <path id="Контур_81" data-name="Контур 81" d="M440.254,425.439l-6.393,1.066A1.6,1.6,0,0,1,432,424.928v-5.941a2.08,2.08,0,0,1,1.738-2.052l5.428-.9a2.081,2.081,0,0,1,2.423,2.052v5.78A1.6,1.6,0,0,1,440.254,425.439Z" transform="translate(-350.488 -337.686)" fill="#fec9a3"/>
  </g>
</svg>
