<svg xmlns="http://www.w3.org/2000/svg" width="186" height="150.028" viewBox="0 0 186 150.028">
  <g id="Copyright" transform="translate(1)">
    <g id="LearnUp__logo--short" transform="translate(24.837 0)">
      <g id="Слой_2">
        <g id="Сгруппировать_11" data-name="Сгруппировать 11">
          <g id="Сгруппировать_5" data-name="Сгруппировать 5" transform="translate(34.503 29.629)">
            <path id="Контур_85" data-name="Контур 85" d="M185.047,141.468h27.3v13.5H170.951l-.1-64.023,14.229-5Z" transform="translate(-170.847 -85.95)" fill="#ff8e3c"/>
          </g>
          <g id="Сгруппировать_6" data-name="Сгруппировать 6" transform="translate(83.449 27.086)">
            <path id="Контур_86" data-name="Контур 86" d="M325.974,79.279a23.782,23.782,0,0,1,17.381,6.958,24.193,24.193,0,0,1,0,34.138,23.782,23.782,0,0,1-17.381,6.958H313.4V150.84h-14.11V79.279Zm0,34.851a9.853,9.853,0,0,0,7.464-3.122,11.62,11.62,0,0,0,0-15.493,9.966,9.966,0,0,0-7.464-3.063H313.4V114.13Z" transform="translate(-299.285 -79.279)" fill="#ff8e3c"/>
          </g>
          <g id="Сгруппировать_10" data-name="Сгруппировать 10">
            <g id="Сгруппировать_7" data-name="Сгруппировать 7">
              <path id="Контур_87" data-name="Контур 87" d="M140.788,8.214l-34.2,3.435a2.068,2.068,0,0,0-1.219.565L80.914,36.36a2.021,2.021,0,0,0-.416,2.29,2,2,0,0,0,2.022,1.145l34.242-3.36a2.229,2.229,0,0,0,.654-.178,2.117,2.117,0,0,0,.565-.387l24.429-24.22a2.015,2.015,0,0,0-1.621-3.435Z" transform="translate(-80.311 -8.203)" fill="#ff8e3c"/>
            </g>
            <g id="Сгруппировать_8" data-name="Сгруппировать 8" transform="translate(3.309 35.516)">
              <path id="Контур_88" data-name="Контур 88" d="M95.952,121.8a4.012,4.012,0,0,0,3.316,2.334l4.148,9.01a2.019,2.019,0,0,0,3.672-1.68l-4.148-9.01a4.04,4.04,0,0,0-2.929-6.378L93.261,101.4l-4.267.387,7.345,15.983A3.983,3.983,0,0,0,95.952,121.8Z" transform="translate(-88.994 -101.4)" fill="#ff8e3c"/>
            </g>
            <g id="Сгруппировать_9" data-name="Сгруппировать 9" transform="translate(17.612 16.931)">
              <path id="Контур_89" data-name="Контур 89" d="M147.743,67.41a6.128,6.128,0,0,1-1.977.55l-19.24,1.888,3.777,8.029c.922,1.963,3.762,2.661,8.415,2.082a45.2,45.2,0,0,0,13.054-3.97,45.377,45.377,0,0,0,11.389-7.523c3.42-3.212,4.7-5.843,3.777-7.806l-3.777-8.029L149.438,66.251A6.993,6.993,0,0,1,147.743,67.41Z" transform="translate(-126.526 -52.631)" fill="#ff8e3c"/>
            </g>
          </g>
        </g>
      </g>
    </g>
    <text id="Copyright_LearnUP_2020_Все_права_защищены" data-name="Copyright © LearnUP 2020
  Все права защищены" transform="translate(92 127.028)" fill="#ff8e3c" font-size="16" font-family="SFProDisplay-Regular, SF Pro Display"><tspan x="-92.441" y="0">Copyright © LearnUP 2020</tspan><tspan x="-78.836" y="19" xml:space="preserve">  Все права защищены</tspan></text>
  </g>
</svg>
