<svg id="github-logo-silhouette-in-a-square" xmlns="http://www.w3.org/2000/svg" width="53.423" height="53.875" viewBox="0 0 53.423 53.875">
  <g id="Сгруппировать_213" data-name="Сгруппировать 213" transform="translate(0)">
    <path id="Контур_556" data-name="Контур 556" d="M54.413,0H3.772A1.391,1.391,0,0,0,2.381,1.391V52.483a1.391,1.391,0,0,0,1.391,1.391H20.607v-.012a1.24,1.24,0,0,0,1.369-1.154c.069-1.871.02-3.746.02-5.554a38.554,38.554,0,0,1-3.93.161,6.429,6.429,0,0,1-6.117-4.131,7.889,7.889,0,0,0-3.234-3.973,3.272,3.272,0,0,1-.771-.693c-.292-.341-.237-.691.224-.784A3.849,3.849,0,0,1,9.6,37.659a6.021,6.021,0,0,1,4,2.973,6.061,6.061,0,0,0,8.059,2.512.792.792,0,0,0,.448-.432,6.981,6.981,0,0,1,1.748-3.571c-1.1-.2-2.124-.355-3.126-.587A12.551,12.551,0,0,1,13.362,34.3a13.165,13.165,0,0,1-2.578-6.647c-.509-3.8-.053-7.351,2.554-10.385a.817.817,0,0,0,.145-.658,10.612,10.612,0,0,1,.094-6.359c.34-1.108.434-1.163,1.565-1.009.069.009.136.027.2.038a17.216,17.216,0,0,1,6.139,2.651,1.374,1.374,0,0,0,.936.188,28.761,28.761,0,0,1,13.761,0,1.384,1.384,0,0,0,.877-.161c1.045-.546,2.045-1.181,3.1-1.7a8.585,8.585,0,0,1,3.924-1.03.93.93,0,0,1,.7.454,10.532,10.532,0,0,1,.348,6.809,1.262,1.262,0,0,0,.168.843,23.009,23.009,0,0,1,2,3.616,15.222,15.222,0,0,1-.925,11.482c-1.589,3.376-4.537,5.086-8.026,5.969-1.178.3-2.386.479-3.657.728,1.666,1.74,1.927,3.864,1.9,6.088-.031,2.294-.023,4.59-.024,6.885,0,1.112.485,1.726,1.332,1.762,0,0,17.9,0,17.9,0V1.391A1.391,1.391,0,0,0,54.413,0Z" transform="translate(-2.381)"/>
  </g>
</svg>
