<svg xmlns="http://www.w3.org/2000/svg" width="52.862" height="52.862" viewBox="0 0 52.862 52.862">
  <path id="google-plus_1_" data-name="google-plus (1)" d="M0,0V52.862H52.862V0ZM30.816,28.655C29.912,34.593,25.485,38,19.753,38a11.663,11.663,0,1,1,0-23.325,11.065,11.065,0,0,1,7.833,3.042l-3.347,3.347a6.155,6.155,0,0,0-4.486-1.751,7,7,0,0,0-6.866,7.023,6.922,6.922,0,0,0,6.866,6.933c3.178,0,5.584-1.536,6.279-4.612H19.753V23.971H30.788a13.668,13.668,0,0,1,.2,2.363A15.393,15.393,0,0,1,30.816,28.655ZM44.822,27.2H40.735v4.085h-2.9V27.2H33.746V24.3h4.087V20.211h2.9V24.3h4.087Z" fill="#dd4b39"/>
</svg>
