<svg id="OBJECTS" xmlns="http://www.w3.org/2000/svg" xmlns:xlink="http://www.w3.org/1999/xlink" width="720" height="749.596" viewBox="0 0 720 749.596">
  <defs>
    <clipPath id="clip-path">
      <path id="Контур_498" data-name="Контур 498" d="M143.7,255.1,3.8,252.6s.9-52.7-1.4-106.5c-.9-23.9-5.4-49.9.8-76.2C19.8.8,74.7-2.3,71.3.8l43.4,24.6c2.4,8.3,25.8,40.9,29.8,59.8.3,1.4.6,2.9.8,4.4a95.113,95.113,0,0,1,1.2,15.1,33.888,33.888,0,0,1-.2,4.5,36.088,36.088,0,0,1-.8,6.6c-2.1,13-8.2,26-20.8,37.3l.2.9v.2Z"/>
    </clipPath>
    <clipPath id="clip-path-2">
      <path id="Контур_499" data-name="Контур 499" d="M145.2,0H0V37.6H148a6.594,6.594,0,0,0,6.6-6.6V9.4A9.326,9.326,0,0,0,145.2,0Z"/>
    </clipPath>
    <clipPath id="clip-path-3">
      <path id="Контур_500" data-name="Контур 500" d="M16.6,0H131.9V27.3H6a6.018,6.018,0,0,1-6-6V16.8A16.73,16.73,0,0,1,16.6,0Z"/>
    </clipPath>
    <clipPath id="clip-path-4">
      <path id="Контур_501" data-name="Контур 501" d="M17.8,0H172V43.1H22.5A22.534,22.534,0,0,1,0,20.6V18A17.777,17.777,0,0,1,17.6,0Z"/>
    </clipPath>
  </defs>
  <g id="Сгруппировать_53" transform="translate(8.309 248.69)">
    <path id="Контур_140" d="M478,25.1H20.8A20.784,20.784,0,0,0,0,45.9V399.3a20.784,20.784,0,0,0,20.8,20.8H478a20.784,20.784,0,0,0,20.8-20.8V46.1a20.828,20.828,0,0,0-20.5-21Z" fill="#f2f5f4"/>
    <g id="Сгруппировать_49" transform="translate(23.114)">
      <path id="Контур_141" d="M478,0H20.8A20.784,20.784,0,0,0,0,20.8V374a20.784,20.784,0,0,0,20.8,20.8H478A20.784,20.784,0,0,0,498.8,374V20.8A20.784,20.784,0,0,0,478,0Z" fill="#fff" stroke="#f2f5f4" stroke-miterlimit="10" stroke-width="1"/>
      <path id="Контур_142" d="M478,8.8H20.8A20.784,20.784,0,0,0,0,29.6V45.8H499V29.6A21.085,21.085,0,0,0,478,8.8Z" fill="#f2f5f4"/>
      <path id="Контур_143" d="M478,0H20.8A20.784,20.784,0,0,0,0,20.8V37H499V20.8A21.152,21.152,0,0,0,478,0Z" fill="#fff"/>
      <circle id="Эллипс_3" cx="6.3" cy="6.3" r="6.3" transform="translate(19.2 12.3)" fill="#d57548"/>
      <path id="Контур_144" d="M57,18.6a6.25,6.25,0,1,1,0-.1Z" fill="#ffb72f"/>
      <path id="Контур_145" d="M82.2,18.6a6.3,6.3,0,1,1-6.3-6.3A6.338,6.338,0,0,1,82.2,18.6Z" fill="#aabc95"/>
    </g>
    <g id="Сгруппировать_52" transform="translate(48.187 47.445)">
      <line id="Линия_4" x2="96.2" transform="translate(321.8 21.6)" fill="none" stroke="#f2f5f4" stroke-linecap="round" stroke-linejoin="round" stroke-miterlimit="10" stroke-width="5"/>
      <line id="Линия_5" x2="96.2" transform="translate(321.8 40.2)" fill="none" stroke="#f2f5f4" stroke-linecap="round" stroke-linejoin="round" stroke-miterlimit="10" stroke-width="5"/>
      <line id="Линия_6" x2="96.2" transform="translate(321.8 58.9)" fill="none" stroke="#f2f5f4" stroke-linecap="round" stroke-linejoin="round" stroke-miterlimit="10" stroke-width="5"/>
      <line id="Линия_7" x2="96.2" transform="translate(321.8 77.5)" fill="none" stroke="#f2f5f4" stroke-linecap="round" stroke-linejoin="round" stroke-miterlimit="10" stroke-width="5"/>
      <line id="Линия_8" x2="96.2" transform="translate(321.8 96.2)" fill="none" stroke="#f2f5f4" stroke-linecap="round" stroke-linejoin="round" stroke-miterlimit="10" stroke-width="5"/>
      <line id="Линия_9" x2="405.9" transform="translate(12.1 133.5)" fill="none" stroke="#f2f5f4" stroke-linecap="round" stroke-linejoin="round" stroke-miterlimit="10" stroke-width="5"/>
      <line id="Линия_10" x2="405.9" transform="translate(12.1 152.1)" fill="none" stroke="#f2f5f4" stroke-linecap="round" stroke-linejoin="round" stroke-miterlimit="10" stroke-width="5"/>
      <line id="Линия_11" x2="405.9" transform="translate(12.1 170.9)" fill="none" stroke="#f2f5f4" stroke-linecap="round" stroke-linejoin="round" stroke-miterlimit="10" stroke-width="5"/>
      <line id="Линия_12" x2="405.9" transform="translate(12.1 189.4)" fill="none" stroke="#f2f5f4" stroke-linecap="round" stroke-linejoin="round" stroke-miterlimit="10" stroke-width="5"/>
      <line id="Линия_13" x2="405.9" transform="translate(12.1 208.2)" fill="none" stroke="#f2f5f4" stroke-linecap="round" stroke-linejoin="round" stroke-miterlimit="10" stroke-width="5"/>
      <line id="Линия_14" x2="145.2" transform="translate(184 238.2)" fill="none" stroke="#f2f5f4" stroke-linecap="round" stroke-linejoin="round" stroke-miterlimit="10" stroke-width="5"/>
      <line id="Линия_15" x2="145.2" transform="translate(184 257)" fill="none" stroke="#f2f5f4" stroke-linecap="round" stroke-linejoin="round" stroke-miterlimit="10" stroke-width="5"/>
      <line id="Линия_16" x2="145.2" transform="translate(184 275.5)" fill="none" stroke="#f2f5f4" stroke-linecap="round" stroke-linejoin="round" stroke-miterlimit="10" stroke-width="5"/>
      <line id="Линия_17" x2="101.5" transform="translate(184 294.3)" fill="none" stroke="#f2f5f4" stroke-linecap="round" stroke-linejoin="round" stroke-miterlimit="10" stroke-width="5"/>
      <line id="Линия_18" x2="101.5" transform="translate(184 312.9)" fill="none" stroke="#f2f5f4" stroke-linecap="round" stroke-linejoin="round" stroke-miterlimit="10" stroke-width="5"/>
      <g id="Сгруппировать_50" transform="translate(194.152)">
        <circle id="Эллипс_4" cx="51.2" cy="51.2" r="51.2" transform="translate(10.3 10.3)" fill="none" stroke="#f2f5f4" stroke-linecap="round" stroke-linejoin="round" stroke-miterlimit="10" stroke-width="5"/>
        <path id="Контур_146" d="M61.5,10.3V61.5L99.1,96.2" fill="none" stroke="#f2f5f4" stroke-linecap="round" stroke-linejoin="round" stroke-miterlimit="10" stroke-width="5"/>
      </g>
      <g id="Сгруппировать_51" transform="translate(0 215.889)">
        <circle id="Эллипс_5" cx="51.2" cy="51.2" r="51.2" transform="translate(10.3 10.3)" fill="none" stroke="#f2f5f4" stroke-linecap="round" stroke-linejoin="round" stroke-miterlimit="10" stroke-width="5"/>
        <path id="Контур_147" d="M61.5,10.3V61.5L99.1,96.2" fill="none" stroke="#f2f5f4" stroke-linecap="round" stroke-linejoin="round" stroke-miterlimit="10" stroke-width="5"/>
      </g>
      <rect id="Прямоугольник_27" width="92.3" height="81.9" transform="translate(343.8 232.8)" fill="none" stroke="#f2f5f4" stroke-linecap="round" stroke-linejoin="round" stroke-miterlimit="10" stroke-width="5"/>
      <path id="Контур_148" d="M10.3,20.5l84.1,81.9H10.3Z" fill="none" stroke="#f2f5f4" stroke-linecap="round" stroke-linejoin="round" stroke-miterlimit="10" stroke-width="5"/>
    </g>
  </g>
  <g id="Сгруппировать_71" transform="translate(449.127 163.907)">
    <g id="Сгруппировать_57">
      <g id="Сгруппировать_56">
        <path id="Контур_149" d="M218,16H20.8A20.87,20.87,0,0,0,0,36.9V153.8a20.784,20.784,0,0,0,20.8,20.8H218a20.784,20.784,0,0,0,20.8-20.8V36.9a20.763,20.763,0,0,0-20.7-20.8A.1.1,0,0,0,218,16Z" fill="#f2f5f4"/>
        <g id="Сгруппировать_55" transform="translate(18.581)">
          <path id="Контур_150" d="M218,0H20.8A20.784,20.784,0,0,0,0,20.8V137.7a20.784,20.784,0,0,0,20.8,20.8H218a20.784,20.784,0,0,0,20.8-20.8V20.8A20.784,20.784,0,0,0,218,0Z" fill="#fff" stroke="#f1f1f3" stroke-miterlimit="10" stroke-width="1"/>
          <path id="Контур_151" d="M218,8.8H20.8A20.784,20.784,0,0,0,0,29.6V45.8H239V29.6A21.085,21.085,0,0,0,218,8.8Z" fill="#f2f5f4"/>
          <path id="Контур_152" d="M218,0H20.8A20.784,20.784,0,0,0,0,20.8V37H239V20.8A21.152,21.152,0,0,0,218,0Z" fill="#fff" stroke="#f1f1f3" stroke-miterlimit="10" stroke-width="1"/>
          <g id="Сгруппировать_54" transform="translate(103.935 18.43)">
            <line id="Линия_19" x2="32.2" fill="none" stroke="#e3e9e7" stroke-linecap="round" stroke-linejoin="round" stroke-miterlimit="10" stroke-width="5"/>
            <line id="Линия_20" x2="65.1" transform="translate(47.1)" fill="none" stroke="#e3e9e7" stroke-linecap="round" stroke-linejoin="round" stroke-miterlimit="10" stroke-width="5"/>
          </g>
          <path id="Контур_153" d="M31.9,18.4a6.3,6.3,0,1,1-6.3-6.3A6.338,6.338,0,0,1,31.9,18.4Z" fill="#d57548"/>
          <path id="Контур_154" d="M57.1,18.4a6.3,6.3,0,1,1-6.3-6.3A6.274,6.274,0,0,1,57.1,18.4Z" fill="#ffb72f"/>
          <path id="Контур_155" d="M82.2,18.4a6.3,6.3,0,1,1-6.3-6.3A6.545,6.545,0,0,1,82.2,18.4Z" fill="#aabc95"/>
        </g>
      </g>
    </g>
    <g id="Сгруппировать_70" transform="translate(48.644 68.283)">
      <path id="Контур_156" d="M4.4,51.7c45.8-50.2,90.9,0,90.9,0,47.3-52,90.9,0,90.9,0" fill="none" stroke="#eaa105" stroke-miterlimit="10" stroke-width="1"/>
      <g id="Сгруппировать_58" transform="translate(4.381 41.997)">
        <line id="Линия_21" x2="181.7" transform="translate(0 9.7)" fill="none" stroke="#450000" stroke-miterlimit="10" stroke-width="1"/>
        <line id="Линия_22" y2="15.3" transform="translate(181.7)" fill="none" stroke="#450000" stroke-miterlimit="10" stroke-width="1"/>
        <line id="Линия_23" y2="15.3" fill="none" stroke="#450000" stroke-miterlimit="10" stroke-width="1"/>
      </g>
      <path id="Контур_157" d="M188.1,26.9h-3.9a2.369,2.369,0,0,0-2.4,2.4v4a2.369,2.369,0,0,0,2.4,2.4h4a2.369,2.369,0,0,0,2.4-2.4v-4a2.523,2.523,0,0,0-2.5-2.4Z" fill="none" stroke="#450000" stroke-miterlimit="10" stroke-width="1"/>
      <path id="Контур_158" d="M6.3,26.9H2.4A2.369,2.369,0,0,0,0,29.3v4a2.369,2.369,0,0,0,2.4,2.4h4a2.369,2.369,0,0,0,2.4-2.4v-4A2.523,2.523,0,0,0,6.3,26.9Z" fill="none" stroke="#450000" stroke-miterlimit="10" stroke-width="1"/>
      <path id="Контур_159" d="M97.3,58.2H93.4A2.369,2.369,0,0,0,91,60.6v4A2.369,2.369,0,0,0,93.4,67h4a2.369,2.369,0,0,0,2.4-2.4v-4a2.523,2.523,0,0,0-2.5-2.4Z" fill="none" stroke="#450000" stroke-miterlimit="10" stroke-width="1"/>
      <circle id="Эллипс_6" cx="13.3" cy="13.3" r="13.3" transform="translate(82 49.2)" fill="none" stroke="#c43f00" stroke-miterlimit="10" stroke-width="1"/>
      <g id="Сгруппировать_68" transform="translate(0.157)">
        <g id="Сгруппировать_59" transform="translate(0 0.151)">
          <path id="Контур_160" d="M7.7,12.8,5.9,10,4.1,12.9a1.859,1.859,0,0,1-1.5.9H1.8A1.88,1.88,0,0,1,0,11.9a1.689,1.689,0,0,1,.3-1L3.2,6.8.4,2.9A1.854,1.854,0,0,1,.8.4,1.594,1.594,0,0,1,2,0h.8A1.763,1.763,0,0,1,4.3.8L6,3.5,7.8.9A1.9,1.9,0,0,1,9.3.1h.5A1.88,1.88,0,0,1,11.6,2a1.689,1.689,0,0,1-.3,1L8.6,6.8l3,4.2a1.776,1.776,0,0,1-.4,2.5,2.1,2.1,0,0,1-1.1.4H9.2A3.269,3.269,0,0,1,7.7,12.8Z" fill="#aabc95"/>
        </g>
        <g id="Сгруппировать_60" transform="translate(32.2 0.151)">
          <path id="Контур_161" d="M8.6,8.6v3.2a1.71,1.71,0,0,1-1.7,1.8H5.7a1.71,1.71,0,0,1-1.8-1.7V8.6L.3,2.7A1.752,1.752,0,0,1,.8.3a1.929,1.929,0,0,1,1-.3h.8A1.416,1.416,0,0,1,4,.9L6.3,4.8,8.6.9A1.65,1.65,0,0,1,10.1,0h.3a1.793,1.793,0,0,1,1.8,1.8,1.4,1.4,0,0,1-.3.9Z" fill="#aabc95"/>
        </g>
        <g id="Сгруппировать_61" transform="translate(60.12)">
          <path id="Контур_162" d="M12.5,11.9h0a1.71,1.71,0,0,1-1.7,1.8H2.1a2.094,2.094,0,0,1-2.1-2v-.1H0a1.845,1.845,0,0,1,.5-1.2L6.4,3.6H2.1A1.71,1.71,0,0,1,.3,1.9V1.8h0A1.71,1.71,0,0,1,2,0h8.3a2.094,2.094,0,0,1,2.1,2v.1h0a1.845,1.845,0,0,1-.5,1.2L6,10.1h4.8A1.839,1.839,0,0,1,12.5,11.9Z" fill="#aabc95"/>
        </g>
        <g id="Сгруппировать_64" transform="translate(18.576 2.115)">
          <g id="Сгруппировать_62">
            <path id="Контур_163" d="M9.1,3.8H1.4A1.367,1.367,0,0,1,0,2.4H0v-1A1.367,1.367,0,0,1,1.4,0H9.1a1.415,1.415,0,0,1,1.4,1.3h0V2.4A1.5,1.5,0,0,1,9.1,3.8Z" fill="#aabc95"/>
          </g>
          <g id="Сгруппировать_63" transform="translate(0 6.345)">
            <path id="Контур_164" d="M9.1,3.8H1.4A1.367,1.367,0,0,1,0,2.4H0v-1A1.367,1.367,0,0,1,1.4,0H9.1a1.415,1.415,0,0,1,1.4,1.3h0V2.4A1.5,1.5,0,0,1,9.1,3.8Z" fill="#aabc95"/>
          </g>
        </g>
        <g id="Сгруппировать_67" transform="translate(48.298 2.719)">
          <g id="Сгруппировать_65" transform="translate(0.038)">
            <path id="Контур_165" d="M5.9,8.6.5,3.2A1.272,1.272,0,0,1,.4,1.4a.1.1,0,0,1,.1-.1L1.3.5A1.091,1.091,0,0,1,3,.3a.1.1,0,0,1,.1.1L8.5,5.8a1.272,1.272,0,0,1,.1,1.8.1.1,0,0,1-.1.1l-.6.9A1.521,1.521,0,0,1,5.9,8.6Z" fill="#aabc95"/>
          </g>
          <g id="Сгруппировать_66">
            <path id="Контур_166" d="M.3,5.9,5.7.5A1.272,1.272,0,0,1,7.5.4a.1.1,0,0,1,.1.1l.8.8A1.091,1.091,0,0,1,8.6,3a.1.1,0,0,1-.1.1L3.1,8.6a1.4,1.4,0,0,1-1.9.2.1.1,0,0,1-.1-.1L.3,7.9A1.817,1.817,0,0,1,.3,5.9Z" fill="#aabc95"/>
          </g>
        </g>
      </g>
      <g id="Сгруппировать_69" transform="translate(89.282 0.453)">
        <line id="Линия_24" x2="96.8" fill="none" stroke="#e3e9e7" stroke-linecap="round" stroke-linejoin="round" stroke-miterlimit="10" stroke-width="5"/>
        <line id="Линия_25" x2="48.5" transform="translate(0 14.8)" fill="none" stroke="#e3e9e7" stroke-linecap="round" stroke-linejoin="round" stroke-miterlimit="10" stroke-width="5"/>
      </g>
    </g>
  </g>
  <g id="Сгруппировать_86" transform="translate(85.891 55.14)">
    <path id="Контур_167" d="M230.9,456.4H59.4c-38.1-3.9-30.7-45.8,12.2-65.9l3.2-1.4,139.6-5.4c2.4,1.4,5,2.9,7.6,4.5a1.332,1.332,0,0,0,.5.3C248.4,405.8,277.6,439.3,230.9,456.4Z" fill="#ff8e3c"/>
    <path id="Контур_168" d="M49.5,505.9H248.8c-12.8-67.2-38.1-103.2-38.1-103.2L89,395.5C60,424.1,51.7,474.5,49.5,505.9Z"/>
    <path id="Контур_169" d="M307.2,357.6c-5.4,43.5-86,47.7-72.2-13.4Z" fill="#d16720"/>
    <path id="Контур_170" d="M300.8,339.3l-50.5,46.5c-16.5-17.1-77.5-106.7-88.8-148.7a35.542,35.542,0,0,1,44.3-43.5A35.977,35.977,0,0,1,225,207.3Z" fill="#d16720"/>
    <g id="Сгруппировать_76" transform="translate(248.575 197.598)">
      <path id="Контур_171" d="M120.3,47.4l-12.4,8.8a6.029,6.029,0,0,1-8.2-1.4L92.3,44.4a6.029,6.029,0,0,1,1.4-8.2l12.4-8.8a6.029,6.029,0,0,1,8.2,1.4l7.4,10.4a6,6,0,0,1-1.4,8.2Z" fill="#450000"/>
      <path id="Контур_172" d="M147,37.2c-22.1,13.9-41.4,93.7-87,127.7a29.977,29.977,0,0,1-8,4.5C28.4,179.2.2,161.8.2,134.4l33.8-31,76.1-69.6Z" fill="#efbfa9"/>
      <path id="Контур_173" d="M51.8,169.3C28.2,179.1,0,161.7,0,134.3l33.8-31c-21.9,41.4-9.9,71.8,18,66Z" fill="#ecb298"/>
      <g id="Сгруппировать_75" transform="translate(101.669)">
        <path id="Контур_174" d="M8.5,33.8,0,54.4C36.6,72.5,62.7,55.5,78.9,53L57.6,9.7Z" fill="#efbfa9"/>
        <path id="Контур_175" d="M70.5,29.3a7.957,7.957,0,0,0-2.1,2c-.2.2-.3.5-.5.6a7.583,7.583,0,0,0,0,7.7,9.141,9.141,0,0,0,2,2.4l5.3,4.1,7.6,5.7a7.343,7.343,0,0,0,3.5,1.5,6.9,6.9,0,0,0,5-1.1,7.957,7.957,0,0,0,2.1-2,7.591,7.591,0,0,0-.9-9.7h0l-.5-.3L79.5,29.9a1.332,1.332,0,0,0-.5-.3A7.371,7.371,0,0,0,70.5,29.3Z" fill="#efbfa9"/>
        <path id="Контур_176" d="M120.7,9.8a6.292,6.292,0,0,0-5.3-7.3c-.2,0-.4-.1-.6-.1L82.5,0,50.8,9.2l5.4,27.3,35-20.7,23.6-.8A5.938,5.938,0,0,0,120.7,9.8Z" fill="#efbfa9"/>
        <path id="Контур_177" d="M50.6,9.2l6.5-1.8,24.8,4.2L86,18.9,54.5,36.6Z" fill="#e89076"/>
        <path id="Контур_178" d="M87.2,63.4a7.34,7.34,0,0,1-7.1,3l-16-2.1a7.78,7.78,0,0,1-6.6-8.5,9.192,9.192,0,0,1,1.1-3.3,1.332,1.332,0,0,0,.3-.5c.1-.2.2-.3.3-.5a7.476,7.476,0,0,1,7.3-2.7l16,2.7a7.928,7.928,0,0,1,5.3,3.6l.5.9a7.024,7.024,0,0,1,.6,3.5A17.6,17.6,0,0,1,87.2,63.4Z" fill="#efbfa9"/>
        <path id="Контур_179" d="M87.6,55.3a6.1,6.1,0,0,1-4.1,1.5L67.4,58c-4.1.3-8.9-2.3-8.9-7.7,1.7-2.1,5.1-2,7.9-1.5l16,2.7A8.633,8.633,0,0,1,87.6,55.3Z" fill="#e89076"/>
        <path id="Контур_180" d="M82.2,47.7a7.413,7.413,0,0,1-5.1,3.5l-11,1.5a7.8,7.8,0,0,1-8.8-6.2,7.961,7.961,0,0,1,.8-5c0-.2.2-.3.3-.5A7.676,7.676,0,0,1,64,37.4l11.2-1.1a7.761,7.761,0,0,1,5.3,1.4,7.457,7.457,0,0,1,3,4.7A8.747,8.747,0,0,1,82.2,47.7Z" fill="#e89076"/>
        <path id="Контур_181" d="M61.2,42.8a1.332,1.332,0,0,0-.3.5c-.1.2-.2.3-.3.5h0a7.466,7.466,0,0,0-.9,4.4A7.551,7.551,0,0,0,68,55l16.2-1.2a8.648,8.648,0,0,0,2.3-.6,6.321,6.321,0,0,0,3.2-2.6,7.4,7.4,0,0,0,.3-8.3,4.9,4.9,0,0,0-1.7-1.8,7.339,7.339,0,0,0-5.1-1.7l-15.3.6H67A8.342,8.342,0,0,0,61.2,42.8Z" fill="#efbfa9"/>
        <path id="Контур_182" d="M68.1,39.4h-.9a7.843,7.843,0,0,0-5.9,3.2,1.332,1.332,0,0,0-.3.5c-.1.2-.2.3-.3.5h0a7.86,7.86,0,0,0,8.5,3.8l6.2-1.5,13.4-3.2a4.508,4.508,0,0,1,1.1-.3,7.992,7.992,0,0,0,2.7-1.8h0l-.4-.6L79.6,29.8a1.332,1.332,0,0,0-.5-.3L68,31.9A7.7,7.7,0,0,0,68.1,39.4Z" fill="#e89076"/>
        <path id="Контур_183" d="M69.6,18a7.1,7.1,0,0,0-2.7,3,7.723,7.723,0,0,0,3.2,10.3l4.5,2.6,9.7,5.3a8.881,8.881,0,0,0,4.5.9,6.423,6.423,0,0,0,3-1.1,8.614,8.614,0,0,0,2.7-3,7.524,7.524,0,0,0-2.9-9.7l-4.5-2.7-4.8-2.9L77.6,18A7.266,7.266,0,0,0,69.6,18Z" fill="#efbfa9"/>
        <path id="Контур_184" d="M82.9,35.2a7.2,7.2,0,0,1-4.5,4.2L67.7,42.6A7.806,7.806,0,0,1,58,37.8a7.449,7.449,0,0,1,0-5.1c0-.2.2-.3.2-.5a7.972,7.972,0,0,1,5-4.5L74,24.9a7.491,7.491,0,0,1,5.3.5,7.834,7.834,0,0,1,3.6,9.8Z" fill="#e89076"/>
        <path id="Контур_185" d="M90.8,37a7.338,7.338,0,0,1-5,3.9L69.9,44.5a7.816,7.816,0,0,1-9.2-5.4,6.959,6.959,0,0,1,.5-5.1c0-.2.2-.3.2-.5a7.859,7.859,0,0,1,5.3-4.1l15.9-3.2a8.147,8.147,0,0,1,5.3.9,6.456,6.456,0,0,1,3.3,4.4A7.025,7.025,0,0,1,90.8,37Z" fill="#efbfa9"/>
        <g id="Сгруппировать_74" transform="translate(8.46 9.215)">
          <g id="Сгруппировать_72" transform="translate(9.064 7.856)">
            <path id="Контур_186" d="M0,20.7,36,0,60.8,5,52,17.4,41.7,18.5C41.7,18.3,26.3,48.5,0,20.7Z" fill="#e89076"/>
            <path id="Контур_187" d="M60.6,4.8l6.2,13.3a5.813,5.813,0,0,1-2.7,7.7h0A5.922,5.922,0,0,1,56.8,24L52,17.2Z" fill="#e89076"/>
          </g>
          <g id="Сгруппировать_73">
            <path id="Контур_188" d="M0,24.6,42.3,0,71.6,5.7,61.3,20.4,49.2,21.6C49.1,21.6,31.1,57.4,0,24.6Z" fill="#efbfa9"/>
            <path id="Контур_189" d="M74,11.3l-9.5,9.4,1.8,3.8,2.4,5a3.508,3.508,0,0,0,.5.8,6.744,6.744,0,0,0,7.7,2.9,7.084,7.084,0,0,0,3.8-2.6,6.832,6.832,0,0,0,1.1-5.7L79,14Z" fill="#e89076"/>
            <path id="Контур_190" d="M71.5,5.7l7.4,15.7a6.864,6.864,0,0,1-3.2,9.1h0a6.832,6.832,0,0,1-8.6-2.1l-5.7-8Z" fill="#efbfa9"/>
          </g>
        </g>
      </g>
      <path id="Контур_191" d="M109.2,32.9l21,31.4-6.8,10.6L97.9,42Z" fill="#450000"/>
    </g>
    <path id="Контур_192" d="M235.1,439.3l-131.7.3-47.9.2a441.218,441.218,0,0,0,16.3-49.1c6.3-23.4,11.9-51.7,11-76.1-.6-14.7-2.6-30.1-2.6-45.8,0-10-8.3-79.3,0-85.7,19.3-14.7,74.6-17.1,71.3-13.9l43.4,24.6c2.4,8.3,26,40.9,29.8,59.8.3,1.4.6,2.9.8,4.4a95.113,95.113,0,0,1,1.2,15.1,34.645,34.645,0,0,1-.2,4.5,49.525,49.525,0,0,1-.8,6.6c-2.1,13-8.2,26-20.8,37.3l.2.9v.2l8.5,32.8,8.5,32.9.3.9Z" fill="#ff8e3c"/>
    <path id="Контур_193" d="M222.3,388.5l-.2.6L108,423.2l-4.8,16.2-3.3,11.2-8.8,5.7H59.4c-38.1-3.9-30.7-45.8,12.2-65.9,6.3-23.4,11.9-51.7,11-76.1C82,299.6,80,284.2,80,268.5l43.5-45-1.1,106.1,74.9,12.8,16,12.8,8.5,32.9C222.1,388.4,222.1,388.5,222.3,388.5Z" fill="#d16720"/>
    <g id="Сгруппировать_78" transform="translate(80.253 168.296)">
      <g id="Сгруппировать_187" data-name="Сгруппировать 187">
        <g id="Сгруппировать_77" clip-path="url(#clip-path)">
          <path id="Контур_194" d="M73.1,117.5,48.5,156.2,23.7,117.5,48.5,79Z" fill="none" stroke="#fff" stroke-miterlimit="10" stroke-width="1"/>
          <path id="Контур_195" d="M122.4,117.5,97.6,156.2,73,117.5,97.6,79Z" fill="none" stroke="#fff" stroke-miterlimit="10" stroke-width="1"/>
          <path id="Контур_196" d="M171.5,117.5l-24.8,38.7-24.6-38.7L146.7,79Z" fill="none" stroke="#fff" stroke-miterlimit="10" stroke-width="1"/>
        </g>
      </g>
    </g>
    <g id="Сгруппировать_81" transform="translate(96.832)">
      <circle id="Эллипс_7" cx="28.9" cy="28.9" r="28.9" transform="translate(102 32.6)" fill="#450000"/>
      <circle id="Эллипс_8" cx="28.9" cy="28.9" r="28.9" transform="translate(72.5 0)" fill="#450000"/>
      <circle id="Эллипс_9" cx="28.9" cy="28.9" r="28.9" transform="translate(34.8 10.5)" fill="#450000"/>
      <path id="Контур_198" d="M27.4,57c-11.6,29.9-7.6,48.9,11.3,61.3L56.5,98.8,45.8,52Z" fill="#450000"/>
      <path id="Контур_199" d="M37.5,98.8l6.8,72.8,54.2,36.6.8-89.6Z" fill="#efbfa9"/>
      <path id="Контур_200" d="M28.6,119.2l12.8,22.4,8.2-17.1Z" fill="#450000"/>
      <path id="Контур_201" d="M98.7,177.7s-33.4-6-34.4-43.8l34.9,11.3Z" fill="#e89076"/>
      <path id="Контур_202" d="M121.1,45.9c16.2,19.8,18.3,45.9,18.3,45.9l-17.5,2.7-13.3-42Z" fill="#450000"/>
      <path id="Контур_203" d="M43,69l5.3,20.7,2.4,9.4L57,124.3A40.736,40.736,0,0,0,84.2,153l20.8,6.6a29.571,29.571,0,0,0,37.1-19.2,28.82,28.82,0,0,0,1.3-6.5c1.2-13.9,1.2-30.1-4.1-47.1A64.278,64.278,0,0,0,98.2,45.1H98L94.7,44h-.2c-1.7-.4-3.4-.8-5.1-1.1A52.3,52.3,0,0,0,76.9,42l-13.4.5a21.366,21.366,0,0,0-21,21.8A15.07,15.07,0,0,0,43,69Z" fill="#efbfa9"/>
      <ellipse id="Эллипс_10" cx="17.5" cy="19.5" rx="17.5" ry="19.5" transform="translate(120.5 79.4)" fill="none" stroke="#fff" stroke-miterlimit="10" stroke-width="1"/>
      <g id="Сгруппировать_80" transform="translate(77.829 75.534)">
        <path id="Контур_204" d="M53.5,27.6c.5,5-.9,9.1-3.2,9.4-2.3.2-4.5-3.6-5-8.6s.9-9.1,3.2-9.4S53.1,22.7,53.5,27.6Z"/>
        <path id="Контур_205" d="M39.3,20.2c4.5,10.9,11.9,13.1,17.2,13.1a6.334,6.334,0,0,1,6.3,5.9h0a11.4,11.4,0,0,1-5.7,10.7L43.5,57.3a13.713,13.713,0,0,1-17.3-8.5,8.331,8.331,0,0,1-.4-1.5L19.6,20.6Z" fill="#efbfa9"/>
        <g id="Сгруппировать_79" transform="translate(38.413 19.941)">
          <path id="Контур_206" d="M10,35.8l-.9-1.5,9.1-5a10.172,10.172,0,0,0,5.3-9.8,5.453,5.453,0,0,0-5.4-5.1C12.4,14.2,4.7,11.8,0,.6L1.7,0C5.9,10.3,13,12.5,18.1,12.7a7.469,7.469,0,0,1,7.3,6.8A11.94,11.94,0,0,1,19.2,31Z" fill="#e89076"/>
        </g>
        <path id="Контур_207" d="M23.5,32c.5,5-.9,9.1-3.2,9.4-2.3.2-4.5-3.6-5-8.6s.9-9.1,3.2-9.4C20.9,23.3,23,27,23.5,32Z"/>
        <path id="Контур_208" d="M10.8,12.4c-11.2,4.7-14.4-1.1-6.2-6C13.2,1.2,24.8,6.7,10.8,12.4Z" fill="#450000"/>
        <path id="Контур_209" d="M43.2,7.1C34.4,5.7,36.9.2,44.3,0,52.2,0,54.1,8.9,43.2,7.1Z" fill="#450000"/>
        <path id="Контур_210" d="M43.4,59.4,23.2,57.9s2.3,11.6,8.2,13C37.7,72.2,43.4,59.4,43.4,59.4Z" fill="#fff"/>
      </g>
      <ellipse id="Эллипс_11" cx="17.5" cy="19.5" rx="17.5" ry="19.5" transform="translate(76.1 88.5)" fill="none" stroke="#fff" stroke-miterlimit="10" stroke-width="1"/>
      <line id="Линия_26" x1="19.6" y1="5.6" transform="translate(56.3 98.8)" fill="none" stroke="#fff" stroke-miterlimit="10" stroke-width="1"/>
      <path id="Контур_211" d="M72.3,42.1c10.6,25.1-9.4,59.4-51.2,57C3.2,63.3,4,31.4,72.3,42.1Z" fill="#450000"/>
      <path id="Контур_212" d="M57.8,101.8c-42.1-57.9-63.9,33.7-2.1,29Z" fill="#efbfa9"/>
      <path id="Контур_213" d="M57.3,64.8l.8,48.5L54,116,38.7,69.3Z" fill="#450000"/>
      <path id="Контур_214" d="M59.7,47.4c33.7,13.1,64.4,2.3,64.4,2.3S112.8,22.8,59.7,47.4Z" fill="#450000"/>
      <path id="Контур_215" d="M17.1,52.9c0-17.1-18.9-8.9-5.9,2.1-22.8-3-5.6,25.1,5,15.3" fill="#450000"/>
    </g>
    <path id="Контур_216" d="M197.4,209.2h0c7.3-39.7-30.1-48-58.2-59.7l-15.6,19.9Z" fill="#fff"/>
    <g id="Сгруппировать_82" transform="translate(0 321.131)">
      <path id="Контур_217" d="M64.6,1.7c29.8-5.7,57.3,2.6,42.6,32L61.9,36.4Z" fill="#ff8e3c"/>
      <path id="Контур_218" d="M57.9,87.1C-22.6,107.9-9.4,21.6,38.4,8.7Z" fill="#ff8e3c"/>
    </g>
    <path id="Контур_219" d="M61.6,386.3l-47.9,7.1C5.1,325.6,25.2,251.5,70.4,191.9a33.49,33.49,0,0,1,44.7-8h0A33.366,33.366,0,0,1,129,222Z" fill="#ff8e3c"/>
    <g id="Сгруппировать_85" transform="translate(31.97 273.075)">
      <g id="Сгруппировать_83" transform="translate(106.734)">
        <path id="Контур_220" d="M160.8,15.3,157,10.6h0a4.185,4.185,0,0,0-1.8-1.1L83.4.1a6.169,6.169,0,0,0-5.6,2.3L.6,96.7a3.006,3.006,0,0,0,.5,4.2,3.128,3.128,0,0,0,1,.5l49.4,11.5a6.347,6.347,0,0,0,5.6-1.5l98.6-96.1h5.1Z" fill="#e5ebea"/>
        <path id="Контур_221" d="M4.4,101.4,81.6,7a6.689,6.689,0,0,1,5.6-2.3L159,14.2a2.933,2.933,0,0,1,2.5,3.3,3.805,3.805,0,0,1-.8,1.7L61.3,116a5.54,5.54,0,0,1-5.6,1.5L6.2,106.1a2.94,2.94,0,0,1-2.4-3.4A3.79,3.79,0,0,1,4.4,101.4Z" fill="#fff"/>
        <ellipse id="Эллипс_12" cx="16" cy="8.6" rx="16" ry="8.6" transform="matrix(0.739, -0.673, 0.673, 0.739, 71.886, 59.497)" fill="#e5ebea"/>
        <path id="Контур_222" d="M89.6,14.9a5.788,5.788,0,0,1-4.2,2.9c-1.4,0-1.8-1.4-.8-3a5.788,5.788,0,0,1,4.2-2.9C90.4,11.8,90.7,13.2,89.6,14.9Z" fill="#e5ebea"/>
      </g>
      <g id="Сгруппировать_84" transform="translate(136.878 36.918)">
        <path id="Контур_223" d="M28.4,68.1,93.7,23.5,9.8,29.9,2.7,58Z" fill="#efbfa9"/>
        <path id="Контур_224" d="M16.4,32.8,4.6,31.1a5.379,5.379,0,0,1-4.6-6,7.366,7.366,0,0,1,.4-1.4l.5-1.1a11.287,11.287,0,0,1,14.8-6.1c.3.1.6.3.9.4h0a11.374,11.374,0,0,1,6,10.7h0a5.554,5.554,0,0,1-5.8,5.2Z" fill="#efbfa9"/>
        <path id="Контур_225" d="M42.3,32.3l51.4-8.8.6-1.5A21.665,21.665,0,0,1,107.6,9.5a2.1,2.1,0,0,0,1.5-2.3V6.8A8.782,8.782,0,0,0,100.5,0a6.929,6.929,0,0,0-2,.3l-3,1.1-.3.2A16.3,16.3,0,0,0,84.4,13L43.6,31.7Z" fill="#efbfa9"/>
        <path id="Контур_226" d="M61.4,34.4l23.4-8c3.3-10,8.9-13.9,15-15.9a2.1,2.1,0,0,0,1.5-2.3V7.9a8.558,8.558,0,0,0-5.9-6.3l-.3.2A16.491,16.491,0,0,0,84.4,13.3L80,24Z" fill="#e89076"/>
        <path id="Контур_227" d="M80,23.9l.6-1.5A21.665,21.665,0,0,1,93.9,9.9h0a2.326,2.326,0,0,0,1.5-2.7h0A8.639,8.639,0,0,0,85.2.6c-.1,0-.2.1-.3.1L81.6,1.9A16.491,16.491,0,0,0,70.9,13.4h0L28.7,32.6Z" fill="#efbfa9"/>
      </g>
      <path id="Контур_228" d="M45.7,71.4,149.2,81.8l16,23.3s-70.7,35.5-137,31.1c-28.7-2-38.7-39-15-55.1L17,78.5A43.021,43.021,0,0,1,45.7,71.4Z" fill="#efbfa9"/>
    </g>
    <path id="Контур_229" d="M53.4,465l118.7,16.5,6.5-41.7-116.2-.1Z" fill="#fff"/>
    <path id="Контур_230" d="M187.8,439.8l7.6,41.7L238.5,465l-9.1-25.2Z" fill="#fff"/>
  </g>
  <g id="Сгруппировать_103" transform="translate(357.579 581.495)">
    <g id="Сгруппировать_92" transform="translate(2.417 106.201)">
      <g id="Сгруппировать_90">
        <path id="Контур_231" d="M7.9,0V61.9H322.4c7.7,0,14.2-5.3,16.6-12.5a19.422,19.422,0,0,0,1.1-6.3V19a19.888,19.888,0,0,0-1.2-6.8C336.3,5.1,330,.1,322.4.1H7.9Z" fill="#d16720"/>
        <path id="Контур_232" d="M161,12.2V49.4H339a19.422,19.422,0,0,0,1.1-6.3V19a19.888,19.888,0,0,0-1.2-6.8Z" fill="#ff8e3c"/>
        <circle id="Эллипс_13" cx="13.7" cy="13.7" r="13.7" transform="translate(203.1 17.1)" fill="#ffb72f"/>
        <path id="Контур_233" d="M155,0H13V61.9H155a25.671,25.671,0,0,0,25.7-25.6h0V25.8A25.628,25.628,0,0,0,155.1,0Z" fill="#ff8e3c"/>
        <path id="Контур_234" d="M4.4,0H31.6V9.2H4.4A4.568,4.568,0,0,1,0,4.5H0A4.525,4.525,0,0,1,4.4,0Z" fill="#ff8e3c"/>
        <path id="Контур_235" d="M3.9,52.6H31.5v9.2H3.9A3.842,3.842,0,0,1,0,57.9V56.3A3.866,3.866,0,0,1,3.9,52.6Z" fill="#ff8e3c"/>
        <g id="Сгруппировать_89" transform="translate(7.856 9.366)">
          <path id="Контур_236" d="M143.8,0H0V43.4H143.8a18.032,18.032,0,0,0,18-17.9V18.1A17.968,17.968,0,0,0,144,0Z" fill="#e9eeec"/>
          <path id="Контур_237" d="M140.2,5.6H.2V43.2H145a9.816,9.816,0,0,0,9.8-9.8h0V20.1A14.728,14.728,0,0,0,140.2,5.6Z" fill="#fff"/>
          <g id="Сгруппировать_88" transform="translate(0 5.59)">
            <g id="Сгруппировать_188" data-name="Сгруппировать 188">
              <g id="Сгруппировать_87" clip-path="url(#clip-path-2)">
                <line id="Линия_27" x1="155.9" transform="translate(0 7.9)" fill="none" stroke="#f1f4f6" stroke-miterlimit="10" stroke-width="1"/>
                <line id="Линия_28" x1="161.3" transform="translate(0 15.6)" fill="none" stroke="#f1f4f6" stroke-miterlimit="10" stroke-width="1"/>
                <line id="Линия_29" x1="161.3" transform="translate(0 23.1)" fill="none" stroke="#f1f4f6" stroke-miterlimit="10" stroke-width="1"/>
                <line id="Линия_30" x1="161.3" transform="translate(0 30.8)" fill="none" stroke="#f1f4f6" stroke-miterlimit="10" stroke-width="1"/>
              </g>
            </g>
          </g>
        </g>
      </g>
      <path id="Контур_239" d="M311.5,49.4H294a17.649,17.649,0,0,1-16.6,12.5h33.4a17.523,17.523,0,0,0,16.6-12.5Z" fill="#eaa105"/>
      <path id="Контур_240" d="M310.7,0H277.3c7.6,0,13.9,5,16.5,12.1h33.4A17.737,17.737,0,0,0,310.7,0Z" fill="#eaa105"/>
      <path id="Контур_241" d="M327.4,12.2H294a19.889,19.889,0,0,1,1.2,6.8V43a16.729,16.729,0,0,1-1.1,6.3h33.4a22.528,22.528,0,0,0,1.1-6.3V19A26.243,26.243,0,0,0,327.4,12.2Z" fill="#ffb72f"/>
      <g id="Сгруппировать_91" transform="translate(118.136 22.66)">
        <path id="Контур_242" d="M6.6,0V26.7l8.8-5.4,8.9,5.4V0" fill="#dee5e3"/>
        <path id="Контур_243" d="M0,21.3,10,16l7.7,5.3L24.3,0H6.6Z" fill="#eaa105"/>
      </g>
    </g>
    <g id="Сгруппировать_97" transform="translate(26.739 61.485)">
      <g id="Сгруппировать_96">
        <path id="Контур_244" d="M283.4,0V44.9H15.1C8.6,44.9,3,41.1.9,35.8A12.667,12.667,0,0,1,0,31.1V13.7A9.959,9.959,0,0,1,1.1,8.9C3.2,3.8,8.8.1,15.1.1H283.4Z" fill="#eaa105"/>
        <path id="Контур_245" d="M152.7,8.9v27H.9A11.791,11.791,0,0,1,0,31.3V13.9A9.959,9.959,0,0,1,1.1,9.1H152.8V8.9Z" fill="#ffb72f"/>
        <path id="Контур_246" d="M113.2,26.7H18.7a3.565,3.565,0,0,1-3.6-3.5V21.6A3.565,3.565,0,0,1,18.6,18h94.5a3.565,3.565,0,0,1,3.6,3.5v1.6a3.442,3.442,0,0,1-3.5,3.6Z" fill="#c43f00"/>
        <path id="Контур_247" d="M154.5,0H279V44.9H154.5a18.565,18.565,0,0,1-18.6-18.6h0V18.7A18.715,18.715,0,0,1,154.5,0Z" fill="#ffb72f"/>
        <path id="Контур_248" d="M286.3,0H263.2V6.6h23.1a3.379,3.379,0,0,0,3.6-3.2V3.3h0C290.1,1.5,288.4,0,286.3,0Z" fill="#ffb72f"/>
        <path id="Контур_249" d="M287.2,38.2h-24v6.6h24a2.689,2.689,0,0,0,2.7-2.7h0V41a2.659,2.659,0,0,0-2.3-2.9A.6.6,0,0,1,287.2,38.2Z" fill="#ffb72f"/>
        <g id="Сгруппировать_95" transform="translate(145.479 6.798)">
          <path id="Контур_250" d="M137.9,0V31.4H15.7a17.177,17.177,0,0,1-7.4-1.8A15.645,15.645,0,0,1,15.6.1H138V0Z" fill="#e9eeec"/>
          <path id="Контур_251" d="M137.9,4.1V31.4H15.7a17.177,17.177,0,0,1-7.4-1.8A7.136,7.136,0,0,1,6,24.5V22.2a18.032,18.032,0,0,1,17.9-18h114Z" fill="#fff"/>
          <g id="Сгруппировать_94" transform="translate(6.043 4.079)">
            <g id="Сгруппировать_189" data-name="Сгруппировать 189">
              <g id="Сгруппировать_93" clip-path="url(#clip-path-3)">
                <line id="Линия_31" x2="133" transform="translate(-1.1 5.7)" fill="none" stroke="#f1f4f6" stroke-miterlimit="10" stroke-width="1"/>
                <line id="Линия_32" x2="137.5" transform="translate(-5.6 11.2)" fill="none" stroke="#f1f4f6" stroke-miterlimit="10" stroke-width="1"/>
                <line id="Линия_33" x2="137.5" transform="translate(-5.6 16.8)" fill="none" stroke="#f1f4f6" stroke-miterlimit="10" stroke-width="1"/>
                <line id="Линия_34" x2="137.5" transform="translate(-5.6 22.4)" fill="none" stroke="#f1f4f6" stroke-miterlimit="10" stroke-width="1"/>
              </g>
            </g>
          </g>
        </g>
      </g>
    </g>
    <g id="Сгруппировать_102">
      <g id="Сгруппировать_101">
        <path id="Контур_253" d="M326,0V61.5H30.8A30.686,30.686,0,0,1,0,31,31.142,31.142,0,0,1,6,12.6,25.17,25.17,0,0,1,9,9.1,30.987,30.987,0,0,1,30.8,0Z" fill="#450000"/>
        <path id="Контур_254" d="M190,12.4V49.1H6A30.907,30.907,0,0,1,6,12.5H190Z" fill="#5e2222"/>
        <path id="Контур_255" d="M167.7,0H320.6V61.5H167.7A25.479,25.479,0,0,1,142.2,36V25.7A25.311,25.311,0,0,1,167.3,0Z" fill="#5e2222"/>
        <path id="Контур_256" d="M329.6,0H300.7V9.2h28.9a4.7,4.7,0,0,0,4.7-4.7h0A4.655,4.655,0,0,0,329.6,0Z" fill="#5e2222"/>
        <path id="Контур_257" d="M330.4,52.3H300.8v9.2h29.6a3.714,3.714,0,0,0,3.8-3.7V56.2a3.716,3.716,0,0,0-3.6-3.9Z" fill="#5e2222"/>
        <g id="Сгруппировать_100" transform="translate(153.937 9.215)">
          <path id="Контур_258" d="M172.1,0V43.1H21.6A21.387,21.387,0,0,1,.2,23.4V21.6A21.992,21.992,0,0,1,6.5,6.3,21.638,21.638,0,0,1,21.8,0Z" fill="#f2f5f4"/>
          <path id="Контур_259" d="M172.1,6.9V43H21.6A21.226,21.226,0,0,1,.2,23.4a17.935,17.935,0,0,1,5.1-11A17.68,17.68,0,0,1,18.1,7.1H172V6.9Z" fill="#fff"/>
          <g id="Сгруппировать_99">
            <g id="Сгруппировать_190" data-name="Сгруппировать 190">
              <g id="Сгруппировать_98" clip-path="url(#clip-path-4)">
                <line id="Линия_35" x2="165.9" transform="translate(6.2 10.6)" fill="none" stroke="#f1f4f6" stroke-miterlimit="10" stroke-width="1"/>
                <line id="Линия_36" x2="171.6" transform="translate(0.5 19.2)" fill="none" stroke="#f1f4f6" stroke-miterlimit="10" stroke-width="1"/>
                <line id="Линия_37" x2="171.6" transform="translate(0.5 27.6)" fill="none" stroke="#f1f4f6" stroke-miterlimit="10" stroke-width="1"/>
                <line id="Линия_38" x2="171.6" transform="translate(0.5 36.3)" fill="none" stroke="#f1f4f6" stroke-miterlimit="10" stroke-width="1"/>
              </g>
            </g>
          </g>
          <path id="Контур_261" d="M48.9,10.6V39.9L39.3,34l-9.7,5.9V10.6" fill="#dee5e3"/>
          <path id="Контур_262" d="M56.4,34l-11-5.9L36.9,34,29.6,10.6H48.9Z" fill="#c43f00"/>
        </g>
        <line id="Линия_39" x2="18.2" transform="translate(186.3 18)" fill="none"/>
      </g>
      <path id="Контур_263" d="M78.7,61.5H44.9A30.558,30.558,0,0,1,14.1,31a31.142,31.142,0,0,1,6-18.4,25.17,25.17,0,0,1,3-3.5A30.812,30.812,0,0,1,44.9,0H78.7A30.812,30.812,0,0,0,56.9,9.1a25.17,25.17,0,0,0-3,3.5,30.651,30.651,0,0,0,6.3,42.9A31.668,31.668,0,0,0,78.7,61.5Z" fill="#b22900"/>
      <path id="Контур_264" d="M101.4,61.5H86.7A30.686,30.686,0,0,1,55.9,31a31.142,31.142,0,0,1,6-18.4,25.17,25.17,0,0,1,3-3.5A30.812,30.812,0,0,1,86.7,0h14.7A30.812,30.812,0,0,0,79.6,9.1a25.17,25.17,0,0,0-3,3.5,30.651,30.651,0,0,0,6.3,42.9,31.442,31.442,0,0,0,18.5,6Z" fill="#b22900"/>
      <path id="Контур_265" d="M47.9,30.8a30.844,30.844,0,0,0,6,18.3H20.1a30.6,30.6,0,0,1,0-36.6H53.9A30.844,30.844,0,0,0,47.9,30.8Z" fill="#c43f00"/>
      <path id="Контур_266" d="M70.5,30.8a30.844,30.844,0,0,0,6,18.3H61.9a30.6,30.6,0,0,1,0-36.6H76.6A30.279,30.279,0,0,0,70.5,30.8Z" fill="#c43f00"/>
      <path id="Контур_267" d="M162.2,61.5H147.5A30.686,30.686,0,0,1,116.7,31a31.142,31.142,0,0,1,6-18.4,25.17,25.17,0,0,1,3-3.5A30.812,30.812,0,0,1,147.5,0h14.7a30.812,30.812,0,0,0-21.8,9.1,25.169,25.169,0,0,0-3,3.5,30.651,30.651,0,0,0,6.3,42.9A31.668,31.668,0,0,0,162.2,61.5Z" fill="#b22900"/>
      <path id="Контур_268" d="M131.6,30.8a30.844,30.844,0,0,0,6,18.3H123a30.6,30.6,0,0,1,0-36.6h14.7A29.042,29.042,0,0,0,131.6,30.8Z" fill="#c43f00"/>
    </g>
  </g>
  <path id="Контур_269" d="M472.5,402.8H596.7a14.041,14.041,0,0,0,14-14v-.1h0a14.193,14.193,0,0,0-14-14.1H472.5a14.041,14.041,0,0,0-14,14v.1h0a13.956,13.956,0,0,0,13.8,14.1Z" fill="#f2f5f4"/>
  <g id="Сгруппировать_108" transform="translate(458.491 376.963)">
    <path id="Контур_270" d="M15.6,170.7H138.9a15.6,15.6,0,0,0,15.6-15.5h0V63.9A15.6,15.6,0,0,0,139,48.3H15.6A15.62,15.62,0,0,0,0,63.9H0v91.2a15.493,15.493,0,0,0,15.3,15.6Z" fill="#f2f5f4"/>
    <g id="Сгруппировать_106" transform="translate(22.512)">
      <path id="Контур_271" d="M15.6,162.1H138.9a15.6,15.6,0,0,0,15.6-15.5h0V55.3A15.6,15.6,0,0,0,139,39.7H15.6A15.6,15.6,0,0,0,0,55.2H0v91.2a15.578,15.578,0,0,0,15.6,15.7Z" fill="#fff" stroke="#f1f1f3" stroke-miterlimit="10" stroke-width="1"/>
      <g id="Сгруппировать_104">
        <path id="Контур_272" d="M14,28.1H138.2a14.041,14.041,0,0,0,14-14V14h0a14.193,14.193,0,0,0-14-14.1H14A14.193,14.193,0,0,0,0,14v.1H0A14.041,14.041,0,0,0,14,28.1Z" fill="#fff" stroke="#f1f1f3" stroke-miterlimit="10" stroke-width="1"/>
        <path id="Контур_273" d="M23.9,14.1a6.3,6.3,0,1,1-6.3-6.3A6.274,6.274,0,0,1,23.9,14.1Z" fill="#d57548"/>
        <path id="Контур_274" d="M48.9,14.1a6.3,6.3,0,1,1-6.3-6.3A6.274,6.274,0,0,1,48.9,14.1Z" fill="#ffb72f"/>
        <path id="Контур_275" d="M74,14.1a6.3,6.3,0,1,1-6.3-6.3A6.274,6.274,0,0,1,74,14.1Z" fill="#aabc95"/>
      </g>
      <g id="Сгруппировать_105" transform="translate(18.581 64.355)">
        <line id="Линия_40" x2="115.3" fill="none" stroke="#e3e9e7" stroke-linecap="round" stroke-linejoin="round" stroke-miterlimit="10" stroke-width="5"/>
        <line id="Линия_41" x2="64.7" transform="translate(0 14)" fill="none" stroke="#e3e9e7" stroke-linecap="round" stroke-linejoin="round" stroke-miterlimit="10" stroke-width="5"/>
      </g>
    </g>
    <g id="Сгруппировать_107" transform="translate(44.568 92.756)">
      <rect id="Прямоугольник_28" width="18.1" height="18.1" transform="translate(0 34.9)" fill="none" stroke="#ffb72f" stroke-miterlimit="10" stroke-width="3"/>
      <path id="Контур_276" d="M0,53V0L109.5,53Z" fill="none" stroke="#aabc95" stroke-linejoin="round" stroke-miterlimit="10" stroke-width="3"/>
    </g>
  </g>
  <g id="Сгруппировать_118" transform="translate(393.195 51.22)">
    <g id="Сгруппировать_111" transform="translate(0 140.487)">
      <g id="Сгруппировать_110">
        <g id="Сгруппировать_109">
          <path id="Контур_277" d="M49.6,0h-3" fill="none" stroke="#eaa105" stroke-miterlimit="10" stroke-width="1"/>
          <path id="Контур_278" d="M43.4.2C5,4.2-10.4,52.3,7.3,78.7" fill="none" stroke="#eaa105" stroke-miterlimit="10" stroke-width="1" stroke-dasharray="4.154 2.077"/>
          <path id="Контур_279" d="M8.3,80.1c.6.8,1.2,1.7,1.8,2.4" fill="none" stroke="#eaa105" stroke-miterlimit="10" stroke-width="1"/>
        </g>
      </g>
      <path id="Контур_280" d="M11.7,73.9A8.61,8.61,0,1,1,1.6,80.7a8.571,8.571,0,0,1,10.1-6.8Z" fill="#eaa105"/>
    </g>
    <g id="Сгруппировать_114" transform="translate(254.436 263.109)">
      <g id="Сгруппировать_113" transform="translate(0 8.505)">
        <g id="Сгруппировать_112">
          <path id="Контур_281" d="M0,73.1c1.1.2,2,.5,3,.6" fill="none" stroke="#aabc95" stroke-miterlimit="10" stroke-width="1"/>
          <path id="Контур_282" d="M6.2,74C44.6,77.6,69.2,33.5,57,4.1" fill="none" stroke="#aabc95" stroke-miterlimit="10" stroke-width="1" stroke-dasharray="4.154 2.077"/>
          <path id="Контур_283" d="M56.3,2.7,55,0" fill="none" stroke="#aabc95" stroke-miterlimit="10" stroke-width="1"/>
        </g>
      </g>
      <path id="Контур_284" d="M51.8,16.5A8.589,8.589,0,1,1,63,11.8a8.457,8.457,0,0,1-10.9,4.8C52,16.6,51.9,16.5,51.8,16.5Z" fill="#aabc95"/>
    </g>
    <g id="Сгруппировать_117" transform="translate(94.009)">
      <g id="Сгруппировать_116" transform="translate(8.453 5.566)">
        <g id="Сгруппировать_115">
          <path id="Контур_285" d="M67.4,65.1c.3-.9.6-2,.9-2.9" fill="none" stroke="#d7e0dd" stroke-miterlimit="10" stroke-width="1"/>
          <path id="Контур_286" d="M68.9,59.2C76.3,21.4,34.9-7.4,4.4,1.6" fill="none" stroke="#d7e0dd" stroke-miterlimit="10" stroke-width="1" stroke-dasharray="4.154 2.077"/>
          <path id="Контур_287" d="M2.9,2.1C2,2.4,1.1,2.9,0,3.2" fill="none" stroke="#d7e0dd" stroke-miterlimit="10" stroke-width="1"/>
        </g>
      </g>
      <path id="Контур_288" d="M16.2,12.7A8.591,8.591,0,1,1,12.7,1a8.441,8.441,0,0,1,3.5,11.5Z" fill="#d7e0dd"/>
    </g>
  </g>
  <g id="Сгруппировать_122" transform="translate(105.899 145.463)">
    <g id="Сгруппировать_119" transform="translate(0 9.971)">
      <line id="Линия_42" x2="32.9" fill="none" stroke="#d7e0dd" stroke-linecap="round" stroke-linejoin="round" stroke-miterlimit="10" stroke-width="5"/>
      <line id="Линия_43" x2="18.3" transform="translate(0 16.8)" fill="none" stroke="#d7e0dd" stroke-linecap="round" stroke-linejoin="round" stroke-miterlimit="10" stroke-width="5"/>
    </g>
    <g id="Сгруппировать_120" transform="translate(293.98)">
      <line id="Линия_44" x2="113.3" fill="none" stroke="#d7e0dd" stroke-linecap="round" stroke-linejoin="round" stroke-miterlimit="10" stroke-width="5"/>
      <line id="Линия_45" x2="40.9" transform="translate(0 16.3)" fill="none" stroke="#d7e0dd" stroke-linecap="round" stroke-linejoin="round" stroke-miterlimit="10" stroke-width="5"/>
    </g>
    <g id="Сгруппировать_121" transform="translate(549.89 319.057)">
      <line id="Линия_46" x2="34.3" transform="translate(16)" fill="none" stroke="#d7e0dd" stroke-linecap="round" stroke-linejoin="round" stroke-miterlimit="10" stroke-width="5"/>
      <line id="Линия_47" x2="4.5" fill="none" stroke="#d7e0dd" stroke-linecap="round" stroke-linejoin="round" stroke-miterlimit="10" stroke-width="5"/>
      <line id="Линия_48" x2="17.7" transform="translate(32.6 13.6)" fill="none" stroke="#d7e0dd" stroke-linecap="round" stroke-linejoin="round" stroke-miterlimit="10" stroke-width="5"/>
    </g>
  </g>
  <g id="Сгруппировать_124" transform="translate(342.775)">
    <path id="Контур_289" d="M19.2,44.3V65.6L0,88.5H80.7A44.364,44.364,0,0,0,125,44.3v-.1h0A44.236,44.236,0,0,0,80.7,0H63.3A44.408,44.408,0,0,0,19.2,44.3Z" fill="#d7e0dd"/>
    <g id="Сгруппировать_123" transform="translate(37.465 46.378)">
      <path id="Контур_290" d="M15.7,7.9a7.917,7.917,0,0,1-7.9,7.9A7.962,7.962,0,0,1,0,7.9,7.853,7.853,0,0,1,7.9,0h0a7.876,7.876,0,0,1,7.9,7.7C15.7,7.8,15.7,7.8,15.7,7.9Z" fill="#f2f5f4"/>
      <path id="Контур_291" d="M42.5,7.9A7.9,7.9,0,1,1,34.6,0h0a7.876,7.876,0,0,1,7.9,7.7Z" fill="#f2f5f4"/>
      <path id="Контур_292" d="M69.2,7.9a7.9,7.9,0,0,1-15.8,0A7.982,7.982,0,0,1,61.3,0h0a7.876,7.876,0,0,1,7.9,7.7Z" fill="#f2f5f4"/>
    </g>
  </g>
  <g id="Сгруппировать_128" transform="translate(0 6.345)">
    <g id="Сгруппировать_125" transform="translate(31.422 85.807)">
      <circle id="Эллипс_14" cx="13" cy="13" r="13" transform="translate(289.3 592.4)" fill="#d7e0dd"/>
      <circle id="Эллипс_15" cx="8.5" cy="8.5" r="8.5" transform="translate(594.9)" fill="#d7e0dd"/>
      <circle id="Эллипс_16" cx="11.8" cy="11.8" r="11.8" transform="translate(0 14.9)" fill="#d7e0dd"/>
      <path id="Контур_293" d="M89.3,597.5a7.4,7.4,0,1,0-7.4,7.4h0A7.383,7.383,0,0,0,89.3,597.5Z" fill="#d7e0dd"/>
    </g>
    <g id="Сгруппировать_126" transform="translate(0 16.92)">
      <path id="Контур_294" d="M242.5,647.1a5,5,0,1,1-5-5h0A5.08,5.08,0,0,1,242.5,647.1Z" fill="#aabc95"/>
      <path id="Контур_295" d="M321.5,5.1a5.1,5.1,0,1,0-5.1,5.1,5,5,0,0,0,5.1-5.1Z" fill="#aabc95"/>
      <path id="Контур_296" d="M597.3,50.3a5.1,5.1,0,1,0-5.1,5.1h0A5.188,5.188,0,0,0,597.3,50.3Z" fill="#aabc95"/>
      <path id="Контур_297" d="M15.7,352.2a7.917,7.917,0,0,1-7.9,7.9A7.831,7.831,0,0,1,0,352.2a7.917,7.917,0,0,1,7.9-7.9A7.832,7.832,0,0,1,15.7,352.2Z" fill="#aabc95"/>
      <path id="Контур_298" d="M720,513a4.4,4.4,0,1,1-4.4-4.4A4.439,4.439,0,0,1,720,513Z" fill="#aabc95"/>
    </g>
    <g id="Сгруппировать_127" transform="translate(111.494)">
      <circle id="Эллипс_17" cx="17.1" cy="17.1" r="17.1" transform="translate(18.1 0)" fill="#d7e0dd"/>
      <circle id="Эллипс_18" cx="17.1" cy="17.1" r="17.1" transform="translate(3.5 48.1)" fill="#d7e0dd"/>
      <circle id="Эллипс_19" cx="17.1" cy="17.1" r="17.1" transform="translate(66.4 27.1)" fill="#d7e0dd"/>
      <line id="Линия_49" y1="48" x2="14.7" transform="translate(20.5 17.1)" fill="none" stroke="#d7e0dd" stroke-linecap="round" stroke-linejoin="round" stroke-miterlimit="10" stroke-width="5"/>
      <line id="Линия_50" x1="45.9" y1="27" transform="translate(37.6 17.1)" fill="none" stroke="#d7e0dd" stroke-linecap="round" stroke-linejoin="round" stroke-miterlimit="10" stroke-width="5"/>
      <line id="Линия_51" y1="21" x2="63" transform="translate(20.5 44.1)" fill="none" stroke="#d7e0dd" stroke-linecap="round" stroke-linejoin="round" stroke-miterlimit="10" stroke-width="5"/>
    </g>
  </g>
</svg>
