<svg xmlns="http://www.w3.org/2000/svg" xmlns:xlink="http://www.w3.org/1999/xlink" width="167.03" height="39.934" viewBox="0 0 167.03 39.934">
  <defs>
    <clipPath id="clip-path">
      <rect id="Прямоугольник_9" data-name="Прямоугольник 9" width="167.03" height="39.934" fill="#ff8e3c"/>
    </clipPath>
  </defs>
  <g id="Logo" clip-path="url(#clip-path)">
    <path id="Контур_25" data-name="Контур 25" d="M93.8,99.157h10.9v5.385H88.17L88.13,79l5.68-2Z" transform="translate(-74.601 -65.18)" fill="#ff8e3c"/>
    <path id="Контур_26" data-name="Контур 26" d="M211.086,132.77q1.062,3.838,5.752,3.838a5.381,5.381,0,0,0,4.568-2.04l4.243,2.456a10.114,10.114,0,0,1-8.893,4.364,10.956,10.956,0,0,1-8.118-3.059,11.285,11.285,0,0,1-.041-15.408,10.363,10.363,0,0,1,7.751-3.081,9.733,9.733,0,0,1,7.41,3.095,10.764,10.764,0,0,1,2.917,7.675,12.378,12.378,0,0,1-.2,2.161Zm-.081-4.079h10.4a4.936,4.936,0,0,0-1.856-3.1,5.327,5.327,0,0,0-3.2-1.019,5.556,5.556,0,0,0-3.508,1.075A5.15,5.15,0,0,0,211.005,128.691Z" transform="translate(-174.022 -101.444)" fill="#ff8e3c"/>
    <path id="Контур_27" data-name="Контур 27" d="M375.472,120.4h5.262v20.4h-5.262v-2.407a8.005,8.005,0,0,1-6.65,2.978,9.238,9.238,0,0,1-7-3.121,11.487,11.487,0,0,1,0-15.3,9.248,9.248,0,0,1,7-3.121,8.011,8.011,0,0,1,6.65,2.978Zm-9.709,14.345a5.433,5.433,0,0,0,4.039,1.612,5.5,5.5,0,0,0,4.059-1.612,6.135,6.135,0,0,0,0-8.289,5.5,5.5,0,0,0-4.059-1.612,5.437,5.437,0,0,0-4.039,1.612,6.2,6.2,0,0,0,0,8.289Z" transform="translate(-303.814 -101.435)" fill="#ff8e3c"/>
    <path id="Контур_28" data-name="Контур 28" d="M537.422,124.813a5.5,5.5,0,0,1,2.428-2.938,7.394,7.394,0,0,1,3.773-.978v5.873a6.2,6.2,0,0,0-4.3.979,4.693,4.693,0,0,0-1.9,4.2V141.7H532.16V121.3h5.263Z" transform="translate(-450.469 -102.337)" fill="#ff8e3c"/>
    <path id="Контур_29" data-name="Контур 29" d="M638.1,119.83a7.383,7.383,0,0,1,5.526,2.244,8.516,8.516,0,0,1,2.183,6.2V140.8h-5.262V128.927a4.183,4.183,0,0,0-1.1-3.121,3.983,3.983,0,0,0-2.938-1.075A4.313,4.313,0,0,0,633.244,126a5.261,5.261,0,0,0-1.228,3.793V140.8H626.76V120.4h5.256v2.286Q633.941,119.832,638.1,119.83Z" transform="translate(-530.546 -101.435)" fill="#ff8e3c"/>
    <path id="Контур_30" data-name="Контур 30" d="M864.2,19.26l6.877,11.914H857.32Z" transform="translate(-725.714 -16.303)" fill="#ff8e3c"/>
    <path id="Контур_31" data-name="Контур 31" d="M790.958,99.535a11.4,11.4,0,0,1-7.829-2.693,9.15,9.15,0,0,1-3.059-7.215v-11.6H785.6l.057,11.152a4.836,4.836,0,0,0,1.285,3.548,6.847,6.847,0,0,0,8.039,0,4.839,4.839,0,0,0,1.285-3.548V70.41h5.629V89.623a9.122,9.122,0,0,1-3.059,7.215A11.526,11.526,0,0,1,790.958,99.535Z" transform="translate(-660.322 -59.601)" fill="#ff8e3c"/>
    <path id="Контур_32" data-name="Контур 32" d="M965.857,70.41a9.493,9.493,0,0,1,6.934,2.774,9.649,9.649,0,0,1,0,13.624,9.5,9.5,0,0,1-6.934,2.774h-5.018v9.382H955.21V70.412Zm0,13.909a3.94,3.94,0,0,0,2.978-1.243,4.63,4.63,0,0,0,0-6.18,3.97,3.97,0,0,0-2.978-1.228h-5.018v8.649Z" transform="translate(-808.577 -59.601)" fill="#ff8e3c"/>
    <path id="Контур_33" data-name="Контур 33" d="M24.091-.03,10.447,1.352a.8.8,0,0,0-.485.229L.2,11.207a.806.806,0,0,0,.645,1.382l13.662-1.342a.768.768,0,0,0,.263-.074.757.757,0,0,0,.224-.154l9.745-9.668A.8.8,0,0,0,24.091-.03Z" transform="translate(0.039 0.03)" fill="#ff8e3c"/>
    <path id="Контур_34" data-name="Контур 34" d="M11.322,100.444a1.615,1.615,0,0,0,1.323.935l1.653,3.594a.8.8,0,1,0,1.461-.672l-1.652-3.594a1.615,1.615,0,0,0-1.171-2.547L10.242,92.3l-1.7.153,2.934,6.378A1.615,1.615,0,0,0,11.322,100.444Z" transform="translate(-7.229 -78.131)" fill="#ff8e3c"/>
    <path id="Контур_35" data-name="Контур 35" d="M54.228,49.9a2.378,2.378,0,0,1-.792.218l-7.675.755,1.507,3.205c.368.784,1.5,1.062,3.357.827a18.866,18.866,0,0,0,9.755-4.588c1.366-1.282,1.873-2.33,1.5-3.115L60.38,44,54.9,49.428a2.4,2.4,0,0,1-.672.47Z" transform="translate(-38.735 -37.246)" fill="#ff8e3c"/>
  </g>
</svg>
