<svg xmlns="http://www.w3.org/2000/svg" width="55" height="54" viewBox="0 0 55 54">
  <g id="telegram" transform="translate(-0.053 0)">
    <rect id="Прямоугольник_42" data-name="Прямоугольник 42" width="55" height="54" transform="translate(0.053 0)" fill="#61a8de"/>
    <path id="Контур_555" data-name="Контур 555" d="M83.183,99.631,47.834,113.406a1.289,1.289,0,0,0,.1,2.437l8.983,2.653,3.352,10.637a1.543,1.543,0,0,0,2.573.616l4.644-4.742L76.6,131.7a1.9,1.9,0,0,0,2.986-1.144L85.623,101.7A1.819,1.819,0,0,0,83.183,99.631Zm-4.432,6.4-16.42,14.52a.882.882,0,0,0-.292.562l-.632,5.62a.17.17,0,0,1-.332.031l-2.6-8.381a.882.882,0,0,1,.378-1.011l19.39-12.026A.428.428,0,0,1,78.751,106.035Z" transform="translate(-40.235 -87.452)" fill="#eff0f3"/>
  </g>
</svg>
