<svg xmlns="http://www.w3.org/2000/svg" width="53" height="54" viewBox="0 0 53 54">
  <g id="_124029" data-name="124029" transform="translate(0 0)">
    <rect id="Прямоугольник_41" data-name="Прямоугольник 41" width="53" height="54" transform="translate(0 0)" fill="#44678d"/>
    <path id="Контур_554" data-name="Контур 554" d="M40.335,117.529a25.924,25.924,0,0,0,4.049,6.611,3.7,3.7,0,0,0,.817.7.634.634,0,0,0,1.038-.288,7.78,7.78,0,0,0,.375-2.017c.028-1.358,0-2.247-.082-3.6a1.8,1.8,0,0,0-1.75-1.861c-.423-.071-.462-.4-.19-.72a2.8,2.8,0,0,1,2.207-.824c1.384-.07,2.774-.013,4.16,0a8.854,8.854,0,0,1,1.688.16,1.48,1.48,0,0,1,1.233,1.283A5.113,5.113,0,0,1,53.963,118c-.036,1.482-.113,2.963-.131,4.444A7.24,7.24,0,0,0,54,124.19c.186.789.762.987,1.351.417a19.6,19.6,0,0,0,2.025-2.366,23.079,23.079,0,0,0,2.686-4.86c.374-.879.66-1.07,1.673-1.072q2.856-.006,5.712,0a3.661,3.661,0,0,1,1.01.126.806.806,0,0,1,.6,1.047,8.628,8.628,0,0,1-1.687,3.122c-1.165,1.535-2.386,3.032-3.579,4.549a5.681,5.681,0,0,0-.411.609,1.2,1.2,0,0,0,.235,1.8c1.035,1,2.144,1.929,3.147,2.953a17.607,17.607,0,0,1,1.981,2.4c.73,1.076.279,2.089-1.085,2.27-.858.113-5.051,0-5.268,0a4.265,4.265,0,0,1-2.911-1.084c-.885-.8-1.689-1.668-2.539-2.5a6.942,6.942,0,0,0-.824-.7c-.7-.495-1.377-.385-1.7.377a13.786,13.786,0,0,0-.528,2.519,1.394,1.394,0,0,1-1.5,1.3,15,15,0,0,1-7.637-1.342,15.862,15.862,0,0,1-5.067-4.131,49.435,49.435,0,0,1-5.614-8.6c-.082-.154-1.715-3.4-1.759-3.55a.887.887,0,0,1,.455-1.171c.289-.105,5.674,0,5.763,0A1.869,1.869,0,0,1,40.335,117.529Z" transform="translate(-24.093 -98.046)" fill="#eff0f3"/>
  </g>
</svg>
